<svg width="306" height="135" viewBox="0 0 306 135" fill="none" xmlns="http://www.w3.org/2000/svg">
<g clip-path="url(#clip0_648_10294)">
<rect width="306" height="135" fill="#0E68DD"/>
<g clip-path="url(#clip1_648_10294)">
<path d="M5.50219 -0.486168C54.1237 -49.055 132.822 -49.188 181.279 -0.783257C229.736 47.6215 229.603 126.234 180.982 174.803C132.36 223.372 53.6621 223.505 5.2048 175.1C-43.2525 126.695 -43.1194 48.0827 5.50219 -0.486168Z" fill="white" fill-opacity="0.05"/>
<path d="M129.982 113.207C167.185 76.0439 227.343 75.8845 264.349 112.851C301.355 149.817 301.196 209.91 263.993 247.072C226.79 284.235 166.631 284.395 129.625 247.429C92.619 210.462 92.7786 150.369 129.982 113.207Z" fill="white" fill-opacity="0.05"/>
<path d="M-3.68166 100.709C37.841 59.231 104.894 58.9631 146.086 100.11C187.278 141.257 187.01 208.238 145.487 249.716C103.965 291.194 36.9111 291.461 -4.28072 250.314C-45.4726 209.167 -45.2044 142.186 -3.68166 100.709Z" fill="white" fill-opacity="0.05"/>
</g>
</g>
<defs>
<clipPath id="clip0_648_10294">
<rect width="306" height="135" fill="white"/>
</clipPath>
<clipPath id="clip1_648_10294">
<rect width="306" height="135" fill="white"/>
</clipPath>
</defs>
</svg>
