<svg width="204" height="149" viewBox="0 0 204 149" fill="none" xmlns="http://www.w3.org/2000/svg">
<path fill-rule="evenodd" clip-rule="evenodd" d="M70.6409 57.3012C70.0409 51.5212 65.1809 47.1412 59.3709 47.1412H11.6909C5.91089 47.1712 1.0709 51.5512 0.480896 57.3012C0.440896 57.6912 0.420898 58.0712 0.420898 58.4612V124.901C0.420898 126.151 0.620899 127.391 1.0309 128.571C2.6009 133.151 6.9009 136.231 11.7409 136.231H59.4209C64.2609 136.221 68.5709 133.151 70.1409 128.571C70.5409 127.391 70.7509 126.151 70.7509 124.901V58.4612C70.7309 58.0712 70.7009 57.6812 70.6409 57.3012Z" fill="#DAE1E5"/>
<mask id="mask0_1530_8416" style="mask-type:luminance" maskUnits="userSpaceOnUse" x="0" y="47" width="71" height="90">
<path d="M70.6409 57.3012C70.0409 51.5212 65.1809 47.1412 59.3709 47.1412H11.6909C5.91089 47.1712 1.0709 51.5512 0.480896 57.3012C0.440896 57.6912 0.420898 58.0712 0.420898 58.4612V124.901C0.420898 126.151 0.620899 127.391 1.0309 128.571C2.6009 133.151 6.9009 136.231 11.7409 136.231H59.4209C64.2609 136.221 68.5709 133.151 70.1409 128.571C70.5409 127.391 70.7509 126.151 70.7509 124.901V58.4612C70.7309 58.0712 70.7009 57.6812 70.6409 57.3012Z" fill="white"/>
</mask>
<g mask="url(#mask0_1530_8416)">
<g opacity="0.19">
<path fill-rule="evenodd" clip-rule="evenodd" d="M70.6409 57.3012C70.0409 51.5212 65.1809 47.1412 59.3709 47.1412H11.6909C5.91089 47.1712 1.0709 51.5512 0.480896 57.3012C0.440896 57.6912 0.420898 58.0712 0.420898 58.4612V124.901C0.420898 126.151 0.620899 127.391 1.0309 128.571C2.6009 133.151 6.9009 136.231 11.7409 136.231H59.4209C64.2609 136.221 68.5709 133.151 70.1409 128.571C70.5409 127.391 70.7509 126.151 70.7509 124.901V58.4612C70.7309 58.0712 70.7009 57.6812 70.6409 57.3012Z" fill="url(#paint0_linear_1530_8416)"/>
</g>
</g>
<path d="M136.891 47.1412H184.571C190.831 47.1412 195.901 52.2112 195.901 58.4712V124.891C195.901 131.151 190.831 136.221 184.571 136.221H136.891C130.631 136.221 125.561 131.151 125.561 124.891V58.4712C125.561 52.2112 130.631 47.1412 136.891 47.1412Z" fill="#DAE1E5"/>
<g opacity="0.19">
<path d="M136.891 47.1412H184.571C190.831 47.1412 195.901 52.2112 195.901 58.4712V124.891C195.901 131.151 190.831 136.221 184.571 136.221H136.891C130.631 136.221 125.561 131.151 125.561 124.891V58.4712C125.561 52.2112 130.631 47.1412 136.891 47.1412Z" fill="url(#paint1_linear_1530_8416)"/>
</g>
<path fill-rule="evenodd" clip-rule="evenodd" d="M162.101 16.7112L160.481 56.3612C160.211 63.1112 154.521 68.3612 147.771 68.0912C147.76 68.0912 147.761 68.0912 147.751 68.0912L130.181 67.3812L131.611 75.4612L119.611 66.9512L66.1305 64.7612C59.4105 64.4412 54.2005 58.7512 54.4805 52.0212L56.1005 12.3712C56.3805 5.62117 62.0705 0.361173 68.8305 0.641173H68.8405L150.41 3.97117C157.15 4.28117 162.37 9.97117 162.101 16.7112Z" fill="#0273EC"/>
<mask id="mask1_1530_8416" style="mask-type:luminance" maskUnits="userSpaceOnUse" x="54" y="0" width="109" height="76">
<path d="M162.101 16.7112L160.481 56.3612C160.211 63.1112 154.521 68.3612 147.771 68.0912C147.76 68.0912 147.761 68.0912 147.751 68.0912L130.181 67.3812L131.611 75.4612L119.611 66.9512L66.1305 64.7612C59.4105 64.4412 54.2005 58.7512 54.4805 52.0212L56.1005 12.3712C56.3805 5.62117 62.0705 0.361173 68.8305 0.641173H68.8405L150.41 3.97117C157.15 4.28117 162.37 9.97117 162.101 16.7112Z" fill="white"/>
</mask>
<g mask="url(#mask1_1530_8416)">
<g opacity="0.21">
<path fill-rule="evenodd" clip-rule="evenodd" d="M162.101 16.7112L160.481 56.3612C160.211 63.1112 154.521 68.3612 147.771 68.0912C147.76 68.0912 147.761 68.0912 147.751 68.0912L130.181 67.3812L131.611 75.4612L119.611 66.9512L66.1305 64.7612C59.4105 64.4412 54.2005 58.7512 54.4805 52.0212L56.1005 12.3712C56.3805 5.62117 62.0705 0.361173 68.8305 0.641173H68.8405L150.41 3.97117C157.15 4.28117 162.37 9.97117 162.101 16.7112Z" fill="url(#paint2_linear_1530_8416)"/>
</g>
</g>
<path opacity="0.07" fill-rule="evenodd" clip-rule="evenodd" d="M71.2106 61.7109C68.9706 61.7709 66.8906 62.8809 65.6006 64.7109H66.1706L119.301 66.9009C118.671 63.3809 115.611 60.8209 112.041 60.8209L71.2106 61.7109Z" fill="#333838"/>
<path opacity="0.07" d="M151.16 55.961C151.16 55.961 145.98 55.631 139.4 55.571C132.82 55.511 131.98 58.141 130.89 60.911C129.89 63.431 130.39 65.291 130.63 67.391L147.74 68.091C153.4 68.321 158.48 64.641 160.01 59.181C156.66 56.201 151.16 55.961 151.16 55.961Z" fill="#333838"/>
<path d="M100.82 31.4506L101.19 26.2406C101.47 22.5106 104.71 19.7106 108.44 19.9906C112.17 20.2706 114.97 23.5106 114.7 27.2406L114.33 32.4406L112.93 32.3406L113.31 27.1406C113.53 24.1806 111.3 21.6106 108.34 21.3906C105.38 21.1706 102.81 23.4006 102.59 26.3606L102.21 31.5706L100.82 31.4506Z" fill="#EFEFEF"/>
<path fill-rule="evenodd" clip-rule="evenodd" d="M113.751 31.1314L101.571 30.2514C101.161 30.2214 100.751 30.2614 100.361 30.3814C98.9605 30.7814 97.9605 32.0114 97.8505 33.4614L97.2005 42.4614C97.0705 44.3714 98.5105 46.0414 100.421 46.1814L112.601 47.0614C114.521 47.2014 116.191 45.7714 116.331 43.8514V43.8414L116.981 34.8414C117.111 32.9214 115.671 31.2614 113.751 31.1314Z" fill="#FEFEFE"/>
<path d="M107.081 38.6211C107.431 38.6511 107.701 38.9511 107.671 39.3011L107.461 42.2711C107.431 42.6211 107.131 42.8911 106.781 42.8611C106.431 42.8311 106.161 42.5311 106.191 42.1811L106.401 39.211C106.421 38.861 106.721 38.5911 107.081 38.6211Z" fill="#0A45C5"/>
<path d="M107.06 40.2306C107.883 40.2306 108.55 39.5635 108.55 38.7406C108.55 37.9177 107.883 37.2506 107.06 37.2506C106.237 37.2506 105.57 37.9177 105.57 38.7406C105.57 39.5635 106.237 40.2306 107.06 40.2306Z" fill="#0A45C5"/>
<path fill-rule="evenodd" clip-rule="evenodd" d="M118.05 69.0605L118.48 89.0005C118.67 92.9005 115.67 96.2205 111.77 96.4105C111.77 96.4105 111.77 96.4105 111.76 96.4105L89.4804 96.9005L80.1404 102.331L80.9204 97.0805L73.0404 97.2405C69.1504 97.2005 66.0204 94.0205 66.0404 90.1305L65.6004 70.1305C65.4104 66.2405 68.4004 62.9305 72.2904 62.7405C72.3004 62.7405 72.3004 62.7405 72.3104 62.7405L111.04 61.9205C114.95 61.9605 118.08 65.1505 118.05 69.0605Z" fill="#42BA58"/>
<mask id="mask2_1530_8416" style="mask-type:luminance" maskUnits="userSpaceOnUse" x="65" y="61" width="54" height="42">
<path d="M118.05 69.0605L118.48 89.0005C118.67 92.9005 115.67 96.2205 111.77 96.4105C111.77 96.4105 111.77 96.4105 111.76 96.4105L89.4804 96.9005L80.1404 102.331L80.9204 97.0805L73.0404 97.2405C69.1504 97.2005 66.0204 94.0205 66.0404 90.1305L65.6004 70.1305C65.4104 66.2405 68.4004 62.9305 72.2904 62.7405C72.3004 62.7405 72.3004 62.7405 72.3104 62.7405L111.04 61.9205C114.95 61.9605 118.08 65.1505 118.05 69.0605Z" fill="white"/>
</mask>
<g mask="url(#mask2_1530_8416)">
<g opacity="0.26">
<path fill-rule="evenodd" clip-rule="evenodd" d="M118.05 69.0605L118.48 89.0005C118.67 92.9005 115.67 96.2205 111.77 96.4105C111.77 96.4105 111.77 96.4105 111.76 96.4105L89.4804 96.9005L80.1404 102.331L80.9204 97.0805L73.0404 97.2405C69.1504 97.2005 66.0204 94.0205 66.0404 90.1305L65.6004 70.1305C65.4104 66.2405 68.4004 62.9305 72.2904 62.7405C72.3004 62.7405 72.3004 62.7405 72.3104 62.7405L111.04 61.9205C114.95 61.9605 118.08 65.1505 118.05 69.0605Z" fill="url(#paint3_linear_1530_8416)"/>
</g>
</g>
<path fill-rule="evenodd" clip-rule="evenodd" d="M90.2204 85.6906C89.5404 85.4406 89.0804 84.8006 89.0504 84.0806L88.7904 79.4506C88.7404 78.7206 89.1304 78.0306 89.7904 77.7106C89.3304 80.3706 89.4804 83.1006 90.2204 85.6906Z" fill="#FEFEFE"/>
<path d="M90.1007 78.2308L89.9607 75.5408C89.9007 74.6208 90.2007 73.7208 90.7907 73.0208C91.3607 72.3408 92.1807 71.9208 93.0707 71.8608C94.9507 71.8008 96.5107 73.2808 96.5707 75.1608L96.7207 77.8508H96.0407L95.8907 75.1608C95.8607 74.4308 95.5407 73.7508 95.0107 73.2508C94.0007 72.2808 92.3907 72.3108 91.4207 73.3308C91.3807 73.3708 91.3407 73.4208 91.3007 73.4608C90.8307 74.0208 90.5907 74.7308 90.6407 75.4608L90.7907 78.1508L90.1007 78.2308Z" fill="#EFEFEF"/>
<path fill-rule="evenodd" clip-rule="evenodd" d="M98.1603 78.9009L98.4103 83.5409C98.4903 84.5009 97.7803 85.3509 96.8103 85.4309L90.8103 85.7709C90.6003 85.7809 90.3903 85.7509 90.1903 85.6809C89.4603 83.0809 89.3203 80.3409 89.7903 77.6809C89.9703 77.6009 90.1603 77.5509 90.3603 77.5309L96.3603 77.1909C97.3303 77.1609 98.1303 77.9209 98.1603 78.8909V78.9009Z" fill="#FEFEFE"/>
<path fill-rule="evenodd" clip-rule="evenodd" d="M93.7108 83.6913C93.5308 83.7013 93.3908 83.5613 93.3808 83.3813L93.3009 81.8414C93.2809 81.6614 93.4109 81.5113 93.5909 81.4913C93.7709 81.4813 93.9109 81.6213 93.9209 81.8013V81.8114L94.0109 83.3414C94.0209 83.5214 93.8908 83.6713 93.7108 83.6913Z" fill="#00961D"/>
<path d="M93.6041 82.3298C94.007 82.3164 94.3222 81.961 94.308 81.536C94.2938 81.111 93.9557 80.7773 93.5528 80.7908C93.1499 80.8042 92.8347 81.1596 92.8489 81.5846C92.863 82.0096 93.2012 82.3432 93.6041 82.3298Z" fill="#00961D"/>
<path d="M146.19 89.0512L149.32 100.841L163.12 96.0112L154.78 80.9012C154.78 80.9012 159.45 81.0912 159.78 78.4512C160.11 75.8112 155.78 64.4512 155.78 64.4512L136.78 61.6412L135.62 68.6412L139 86.1412C139.59 88.5212 143 90.6012 145.2 89.5812L153.64 86.3912" fill="#FFB879"/>
<path d="M193.541 110.821L186.391 114.491V141.741L124.391 137.261V122.651L121.101 122.931L124.031 109.241C124.121 108.811 124.241 108.381 124.391 107.961C125.321 105.271 127.291 103.071 129.861 101.841L144.531 94.8409C149.001 99.3809 156.301 99.4309 160.841 94.9709C161.791 94.0409 162.571 92.9408 163.141 91.7408L179.221 92.4209C181.801 92.5209 184.131 93.9609 185.381 96.2209L186.381 97.9408L193.541 110.821Z" fill="white"/>
<mask id="mask3_1530_8416" style="mask-type:luminance" maskUnits="userSpaceOnUse" x="121" y="91" width="73" height="51">
<path d="M193.541 110.821L186.391 114.491V141.741L124.391 137.261V122.651L121.101 122.931L124.031 109.241C124.121 108.811 124.241 108.381 124.391 107.961C125.321 105.271 127.291 103.071 129.861 101.841L144.531 94.8409C149.001 99.3809 156.301 99.4309 160.841 94.9709C161.791 94.0409 162.571 92.9408 163.141 91.7408L179.221 92.4209C181.801 92.5209 184.131 93.9609 185.381 96.2209L186.381 97.9408L193.541 110.821Z" fill="white"/>
</mask>
<g mask="url(#mask3_1530_8416)">
<g opacity="0.35">
<path d="M193.541 110.821L186.391 114.491V141.741L124.391 137.261V122.651L121.101 122.931L124.031 109.241C124.121 108.811 124.241 108.381 124.391 107.961C125.321 105.271 127.291 103.071 129.861 101.841L144.531 94.8409C149.001 99.3809 156.301 99.4309 160.841 94.9709C161.791 94.0409 162.571 92.9408 163.141 91.7408L179.221 92.4209C181.801 92.5209 184.131 93.9609 185.381 96.2209L186.381 97.9408L193.541 110.821Z" fill="url(#paint4_linear_1530_8416)"/>
</g>
</g>
<path fill-rule="evenodd" clip-rule="evenodd" d="M136.11 129.111C136.11 129.111 141.11 132.741 139.51 128.831C137.91 124.921 140.4 112.831 139.96 112.651L139.48 118.901L138.48 119.071L136.11 129.111Z" fill="#0A45C5"/>
<path fill-rule="evenodd" clip-rule="evenodd" d="M148.161 75.9912C148.161 76.6012 147.981 76.9912 147.381 76.9912C146.781 76.9912 146.671 76.4512 146.701 75.8412C146.731 75.2312 146.801 74.7212 147.491 74.7912C148.181 74.8612 148.191 75.3912 148.161 75.9912Z" fill="#5C4002"/>
<path fill-rule="evenodd" clip-rule="evenodd" d="M140.121 76.2805C140.171 76.8605 140.121 77.2805 139.591 77.4205C139.061 77.5605 138.951 77.0505 138.901 76.4205C138.851 75.7905 138.901 75.3605 139.431 75.2805C139.961 75.2005 140.081 75.7005 140.121 76.2805Z" fill="#5C4002"/>
<path d="M142.16 75.2906L142.54 81.4606C142.54 82.0606 142.96 82.5706 143.54 82.6906C144.27 82.5806 144.98 82.3606 145.64 82.0206" stroke="#E68F31" stroke-linecap="round" stroke-linejoin="round"/>
<path fill-rule="evenodd" clip-rule="evenodd" d="M147.97 72.9509C148.97 73.0409 151.19 73.9509 151.06 74.3509C150.93 74.7509 148.82 73.7109 147.86 73.6709C146.9 73.6309 144.93 74.6709 144.91 74.2209C144.89 73.7709 146.34 72.8109 147.97 72.9509Z" fill="#5C4002"/>
<path fill-rule="evenodd" clip-rule="evenodd" d="M137.631 74.4306C137.561 73.8106 139.311 73.5706 139.881 73.5906C140.451 73.6106 141.361 74.1406 140.881 74.2206C140.401 74.3006 139.831 73.9606 139.071 74.3106C138.311 74.6606 137.721 75.1006 137.631 74.4306Z" fill="#5C4002"/>
<path d="M144.37 85.7411C145.3 85.5111 146.14 85.0212 146.79 84.3112" stroke="#E68F31" stroke-linecap="round" stroke-linejoin="round"/>
<path d="M185.911 146.261H185.761C185.471 146.331 185.171 146.171 185.071 145.891L183.591 141.811L184.591 146.151C184.601 146.191 184.601 146.241 184.591 146.281C184.601 146.601 184.351 146.871 184.031 146.881C183.771 146.891 183.541 146.731 183.461 146.481L181.871 142.241L182.971 146.751C183.041 147.031 182.891 147.321 182.621 147.431L182.421 147.511C182.121 147.631 181.781 147.491 181.661 147.191V147.181L180.061 142.901L180.901 147.641C180.941 147.911 180.801 148.161 180.551 148.271L180.451 148.321C180.151 148.451 179.801 148.311 179.671 148.011C179.671 148.001 179.661 147.991 179.661 147.981L177.531 141.981C177.291 141.321 176.641 140.911 175.951 140.981L172.661 141.341H172.471C171.831 141.341 171.241 141.011 170.911 140.471L125.481 140.901C122.821 140.911 120.651 138.771 120.631 136.111C120.631 135.701 120.681 135.301 120.781 134.901L122.901 126.201L123.961 121.851L125.861 121.781L137.861 121.361L137.751 121.871L137.151 124.641L136.221 129.021L169.651 132.161C172.681 132.441 175.671 133.101 178.551 134.101L180.351 134.731C182.731 135.561 184.511 137.561 185.081 140.011L186.351 145.511C186.451 145.811 186.281 146.141 185.981 146.241C185.961 146.251 185.931 146.261 185.911 146.261Z" fill="#FFB879"/>
<path d="M178.53 134.141C179.36 135.271 180.33 136.281 181.44 137.141C182.44 137.751 183.49 138.291 184.56 138.761C184.82 138.081 184.82 137.341 184.56 136.661C184.21 135.431 178.53 134.141 178.53 134.141Z" fill="#E68F31"/>
<path fill-rule="evenodd" clip-rule="evenodd" d="M163.19 91.7405C160.43 97.4805 153.55 99.9005 147.81 97.1405C146.61 96.5605 145.52 95.7805 144.58 94.8405L146.17 94.0805C150.23 97.7405 156.48 97.4105 160.14 93.3505C160.61 92.8305 161.02 92.2705 161.36 91.6705L163.19 91.7405Z" fill="#B5D9ED"/>
<path d="M150.48 58.3607C150.48 58.3607 146.1 58.0807 140.48 58.0307C134.86 57.9807 134.21 60.2007 133.29 62.5507C132.37 64.9007 132.95 66.5507 133.12 68.5507C133.29 70.5507 133.7 71.1507 134.79 72.0707C135.88 72.9907 137.14 71.0707 137.14 71.0707C137.14 71.0707 139.14 72.5807 139.98 72.2507C140.82 71.9207 140.4 70.3207 140.4 70.3207C141.14 71.1307 142.1 71.7207 143.16 72.0007C144.22 72.0507 145.26 71.6607 146.01 70.9107C146.78 70.4407 147.75 70.4407 148.52 70.9107C149.69 71.7407 151.52 73.5907 151.52 72.7507C151.52 71.9107 152.69 72.0807 152.69 73.2507C152.69 74.4207 152.36 78.2507 153.03 77.2507C153.7 76.2507 155.79 74.7407 156.29 76.4907C156.79 78.2407 154.12 80.6007 154.12 80.6007C154.79 81.3007 155.33 82.1207 155.71 83.0207C155.79 83.7807 156.88 85.6207 157.8 85.0207C158.72 84.4207 156.54 82.4307 157.05 81.7607C157.56 81.0907 158.8 81.9207 159.39 80.5907C159.98 79.2607 161.2 75.2307 160.02 65.0307C159.33 58.7307 150.48 58.3607 150.48 58.3607Z" fill="#333838"/>
<path d="M146.74 91.0309L152.06 86.9908L146.23 89.2209L146.74 91.0309Z" fill="#E68F31"/>
<path d="M124.44 122.651L139.4 121.361L140.08 112.271" stroke="#0273EC" stroke-width="0.5" stroke-miterlimit="10"/>
<path d="M173.33 108.101L179.27 117.631L178.53 117.421L186.11 113.481L186.43 114.061L179.06 118.381L178.56 118.671L178.31 118.161L173.33 108.101Z" fill="#0A45C5"/>
<path fill-rule="evenodd" clip-rule="evenodd" d="M137.73 121.901L137.13 124.671C135.23 125.261 133.28 125.681 131.31 125.921C128.5 126.211 125.68 126.311 122.86 126.231L123.92 121.881L125.82 121.811L137.73 121.901Z" fill="#E68F31"/>
<path d="M121.77 119.681L139.62 118.901L139.51 123.031L120.98 123.811L121.77 119.681Z" fill="#339AEE"/>
<path d="M180.06 142.901C180.06 142.901 179.82 141.951 179.75 141.631C179.68 141.391 179.56 141.181 179.4 140.991L180.06 142.901Z" fill="#E68F31"/>
<path d="M182.001 142.611C182.001 142.611 181.761 141.611 181.691 141.331C181.621 141.091 181.501 140.881 181.341 140.691L182.001 142.611Z" fill="#E68F31"/>
<path d="M183.671 142.101C183.671 142.101 183.441 141.151 183.371 140.831C183.301 140.591 183.181 140.381 183.021 140.191L183.671 142.101Z" fill="#E68F31"/>
<path d="M180.071 138.961C179.071 139.351 177.801 139.911 177.391 139.541C177.501 139.651 182.291 137.541 182.281 137.541C182.361 137.861 182.231 138.191 181.941 138.361C181.661 138.511 181.351 138.591 181.031 138.621C180.701 138.701 180.381 138.811 180.071 138.961Z" fill="#E68F31"/>
<path d="M142.158 90.0028L141.321 90.8629L151.292 100.562L152.129 99.7022L142.158 90.0028Z" fill="#00961D"/>
<path fill-rule="evenodd" clip-rule="evenodd" d="M144.26 92.4205L140.83 95.5005L142.44 97.0705L145.36 93.4905L144.26 92.4205Z" fill="#00961D"/>
<path d="M141.753 90.4065L139.654 92.5641L140.945 93.8192L143.043 91.6617L141.753 90.4065Z" fill="#00961D"/>
<path d="M145.557 94.5633L144.393 95.7604L144.959 96.3112L146.123 95.1142L145.557 94.5633Z" fill="#00961D"/>
<path fill-rule="evenodd" clip-rule="evenodd" d="M153.03 97.8112C150.81 98.3012 149.4 100.501 149.89 102.721C150.38 104.941 152.58 106.351 154.8 105.861C157.02 105.371 158.43 103.171 157.94 100.951C157.94 100.951 157.94 100.951 157.94 100.941C157.45 98.7212 155.25 97.3212 153.03 97.8112ZM154.38 103.901C153.22 104.161 152.06 103.421 151.8 102.261C151.54 101.101 152.28 99.9412 153.44 99.6812C154.6 99.4212 155.76 100.151 156.02 101.321C156.27 102.481 155.54 103.641 154.38 103.901Z" fill="#00961D"/>
<path d="M198.74 142.741L193.68 142.671C191.55 142.651 189.49 141.981 187.75 140.751L157.48 119.441H157.27C155.28 119.061 153.48 118.001 152.18 116.441L150.18 113.961C149.1 112.651 148.7 110.231 148.49 109.401C148.26 108.861 148.48 108.231 148.99 107.941C148.99 107.941 148.21 106.721 148.71 105.881C149.21 105.041 149.46 105.321 149.52 105.371C149.47 105.251 148.95 103.901 149.44 103.471C149.75 103.211 150.08 102.981 150.44 102.801L150.55 101.801C150.66 101.381 151.09 101.141 151.51 101.251C151.6 101.281 151.69 101.321 151.77 101.381C151.85 101.421 151.92 101.491 151.97 101.571L152.62 102.571L154.28 105.021L155.09 106.221V106.281L156.49 108.341C156.7 108.681 157.1 108.851 157.49 108.791C157.68 108.771 157.83 108.601 157.82 108.411C157.83 108.351 157.83 108.281 157.82 108.221L156.93 106.581L156.12 105.581L155.89 105.301C155.48 104.811 155.55 104.071 156.05 103.671C156.13 103.601 156.22 103.551 156.32 103.501L157.02 104.111L157.97 104.931C158.3 105.201 158.59 105.501 158.86 105.831L160.32 107.561C161.01 108.381 161.44 109.381 161.54 110.451L161.93 114.311L184.88 124.161L182.43 120.001L181.02 117.591L179.38 114.801L191.94 110.051L192.84 112.141L193.63 113.961L203.19 136.171C204.22 138.551 203.13 141.321 200.75 142.351C200.12 142.631 199.43 142.761 198.74 142.741Z" fill="#FFB879"/>
<path d="M152.98 108.171C152.79 108.411 152.4 107.911 151.98 107.411C151.09 106.281 149.89 102.781 150.24 102.581C150.43 102.471 150.87 104.311 151.59 105.851C152.18 107.051 153.12 107.991 152.98 108.171Z" fill="#E68F31"/>
<path fill-rule="evenodd" clip-rule="evenodd" d="M149.541 105.121C150.171 106.551 150.931 107.921 151.791 109.231C152.411 109.831 152.791 109.591 152.741 110.041C152.691 110.491 151.531 109.601 151.121 109.041C150.711 108.481 148.901 105.341 149.541 105.121Z" fill="#E68F31"/>
<path fill-rule="evenodd" clip-rule="evenodd" d="M151.841 112.371C151.841 112.371 149.781 110.421 149.551 109.581C149.441 109.041 149.271 108.521 149.051 108.021C148.881 107.601 148.941 108.911 149.221 109.531C149.501 110.151 151.341 112.821 151.841 112.371Z" fill="#E68F31"/>
<path fill-rule="evenodd" clip-rule="evenodd" d="M193.56 113.971C192.13 114.971 189.56 116.631 187.56 117.741C185.89 118.611 184.17 119.371 182.4 120.011L180.99 117.601L192.81 112.141L193.56 113.971Z" fill="#E68F31"/>
<path d="M177.62 115.391L192.52 108.521L194.19 111.761L179.68 118.461L177.62 115.391Z" fill="#339AEE"/>
<path fill-rule="evenodd" clip-rule="evenodd" d="M183.921 122.581L184.811 124.171L190.951 126.601C189.081 124.441 186.791 123.431 183.921 122.581Z" fill="#E68F31"/>
<path fill-rule="evenodd" clip-rule="evenodd" d="M136.41 129.081C136.41 129.081 135.15 127.961 134.48 128.081C133.81 128.201 133.48 129.311 134.25 129.201C134.97 129.121 135.69 129.081 136.41 129.081Z" fill="#E68F31"/>
<path d="M81.0415 64.2871L76.0732 75.4733L77.042 75.9035L82.0102 64.7174L81.0415 64.2871Z" fill="#0A45C5"/>
<path fill-rule="evenodd" clip-rule="evenodd" d="M79.8809 67.5612L82.8609 68.7612L82.5009 69.5811L79.6309 68.1212L79.8809 67.5612Z" fill="#0A45C5"/>
<path d="M81.5173 64.4971L80.876 65.941L84.6595 67.6215L85.3008 66.1775L81.5173 64.4971Z" fill="#0A45C5"/>
<path d="M79.7636 69.1353L79.4795 69.775L80.8229 70.3717L81.1071 69.732L79.7636 69.1353Z" fill="#0A45C5"/>
<path fill-rule="evenodd" clip-rule="evenodd" d="M74.3403 74.9013C72.4003 75.6013 71.3903 77.7513 72.0903 79.6913C72.7903 81.6313 74.9403 82.6413 76.8803 81.9413C78.8203 81.2413 79.8303 79.1013 79.1303 77.1613C78.4303 75.2113 76.2903 74.2013 74.3403 74.9013ZM76.4503 80.7413C75.1703 81.2013 73.7503 80.5313 73.2903 79.2513C72.8303 77.9713 73.5003 76.5513 74.7803 76.0913C76.0603 75.6313 77.4803 76.3013 77.9403 77.5813C78.4203 78.8613 77.7703 80.2813 76.4903 80.7613H76.4803L76.4503 80.7413Z" fill="#0A45C5"/>
<path fill-rule="evenodd" clip-rule="evenodd" d="M31.0506 85.751C31.0506 85.751 37.7206 91.751 37.2106 98.671C36.7006 105.591 28.3906 115.091 18.7406 112.931C9.09062 110.771 10.3306 99.491 13.4806 94.471C16.6306 89.451 22.7406 81.541 31.0506 85.751Z" fill="#091414"/>
<path fill-rule="evenodd" clip-rule="evenodd" d="M26.1001 88.5413C29.7301 90.4313 32.5601 84.8313 28.4901 82.8213C26.7301 81.9513 37.6901 88.6713 41.4901 76.4413C42.8701 72.0713 46.9801 70.8413 49.4901 69.8613C50.0901 69.6113 50.3801 68.9313 50.1401 68.3213C50.0701 68.1413 49.9501 67.9813 49.8001 67.8613C48.1301 66.5113 45.0801 65.1413 40.3201 64.5713C24.5501 62.6913 22.5401 86.6813 26.1001 88.5413Z" fill="#091414"/>
<path fill-rule="evenodd" clip-rule="evenodd" d="M26.8403 82.7311C26.8403 82.7311 32.4003 87.7311 31.9703 93.5111C31.5403 99.2911 24.6103 107.211 16.5703 105.411C8.53027 103.611 8.89028 94.3311 12.2003 90.0011C15.5103 85.6711 22.9303 81.9711 26.8403 82.7311Z" fill="#091414"/>
<path fill-rule="evenodd" clip-rule="evenodd" d="M50.3104 84.9008C49.9904 87.1608 49.1304 89.3208 47.8004 91.1808C46.5704 93.0708 45.5304 94.4208 43.9704 95.1808C42.6904 95.8008 40.5004 95.4908 38.6104 94.9508L37.9004 102.731L27.9004 105.061L28.8004 80.7708C28.8004 80.7708 28.5304 66.3808 38.1004 65.2708C45.9004 64.3708 48.1004 67.6008 49.5904 70.8008C51.0804 74.0008 50.7204 81.2208 50.3104 84.9008Z" fill="#FEE1A5"/>
<path fill-rule="evenodd" clip-rule="evenodd" d="M42.8701 114.671C40.5901 115.311 38.2301 115.591 35.8701 115.491C34.3401 115.421 32.9901 115.311 31.8701 115.171C31.8701 114.981 31.8001 114.801 31.7601 114.621C31.4901 113.371 31.2101 112.201 30.9201 111.091C30.3301 108.821 29.7201 106.911 29.2101 105.421C28.9101 104.581 28.6601 103.881 28.4501 103.351C28.2401 102.821 28.1801 102.671 28.0801 102.461C28.0801 102.411 28.0801 102.371 28.0801 102.331C28.8201 102.151 29.5501 102.001 30.2701 101.871C31.2701 101.711 32.1901 101.591 33.1301 101.531C34.7601 101.421 36.4101 101.531 38.0101 101.861L38.3201 101.931C38.5301 101.971 38.7301 102.021 38.9301 102.081C39.0001 102.271 39.0901 102.501 39.2101 102.791C40.6001 106.381 41.7801 110.051 42.7201 113.791L42.8701 114.671Z" fill="#FEE1A5"/>
<path fill-rule="evenodd" clip-rule="evenodd" d="M44.2906 126.181C44.2906 126.371 44.2906 126.581 44.2906 126.781C44.2006 129.451 44.1706 133.381 44.0206 136.221H32.8506C32.9506 134.501 33.0306 132.781 33.0706 131.101C33.2306 127.661 33.1406 124.211 32.7906 120.791C32.5406 118.791 32.2206 116.931 31.8506 115.171C33.0106 115.311 34.3606 115.421 35.8506 115.491C38.2106 115.591 40.5706 115.311 42.8506 114.671C43.8306 118.431 44.3106 122.301 44.2906 126.181Z" fill="#FEFEFE"/>
<path fill-rule="evenodd" clip-rule="evenodd" d="M33.0705 131.101C33.0705 132.781 32.9505 134.501 32.8505 136.221H11.6905C6.85047 136.221 2.55047 133.141 0.980469 128.561C3.97047 122.191 7.95047 116.331 12.7705 111.201C13.1905 110.741 13.6405 110.311 14.1005 109.901C15.8305 108.261 17.7505 106.841 19.8205 105.671C21.0105 104.991 22.2505 104.381 23.5205 103.861C24.5505 103.431 25.6105 103.061 26.6805 102.741C27.0405 102.631 27.4205 102.531 27.8005 102.431L27.7005 102.611C26.8105 104.311 23.7605 110.301 24.4305 111.291C24.9605 111.951 25.5605 112.571 26.2005 113.131L27.6705 114.521C28.6705 115.521 29.4605 116.391 29.2905 116.741C28.9105 117.521 26.3805 120.821 26.9605 122.181C27.4205 123.241 31.4805 128.901 33.0705 131.101Z" fill="#73B9F6"/>
<path fill-rule="evenodd" clip-rule="evenodd" d="M59.1202 134.291C58.3002 135.231 55.0102 136.221 55.0102 136.221H44.0102C44.1602 133.381 44.1902 129.451 44.2802 126.781C44.8102 124.271 46.0802 118.161 46.3902 116.151C46.5402 115.221 46.0802 114.301 45.2502 113.861C44.3702 113.281 43.2502 112.981 43.0602 112.441C42.6702 111.441 43.8502 110.491 44.6302 109.501C45.4102 108.511 40.1502 103.281 38.9902 102.111C47.1102 104.281 53.0602 111.811 56.7802 118.111C58.5602 121.121 60.0802 124.271 61.3302 127.541C58.5402 127.541 61.4802 131.621 59.1202 134.291Z" fill="#73B9F6"/>
<path d="M44.6502 81.3307C44.6502 81.3307 45.9102 87.4507 45.4602 87.8107C45.0102 88.1707 42.9902 87.9807 42.9902 87.9807" stroke="#E8BA02" stroke-linecap="round" stroke-linejoin="round"/>
<path fill-rule="evenodd" clip-rule="evenodd" d="M45.1604 78.1713C45.0804 77.6813 46.1604 77.3013 47.3404 77.2313C48.5204 77.1613 49.7304 77.2313 49.7904 77.5613C49.8504 77.8913 48.0504 77.7013 47.3604 77.8413C46.6704 77.9813 45.2504 78.6613 45.1604 78.1713Z" fill="#091414"/>
<path fill-rule="evenodd" clip-rule="evenodd" d="M37.8402 79.2813C37.7702 78.8013 38.8402 78.4313 39.9802 78.3613C41.1202 78.2913 42.3102 78.3613 42.3702 78.6813C42.4302 79.0013 40.6702 78.8213 40.0002 78.9613C39.3302 79.1013 37.9202 79.7613 37.8402 79.2813Z" fill="#091414"/>
<path d="M40.8701 90.8209C41.5201 91.3109 42.3001 91.5909 43.1101 91.6209C43.5101 91.5409 43.8901 91.3609 44.1901 91.0809" stroke="#E8BA02" stroke-linecap="round" stroke-linejoin="round"/>
<path d="M47.5705 81.0714C48.2105 81.8914 48.8905 81.5714 49.3005 80.7814C49.3705 80.6814 49.5105 80.6514 49.6205 80.7214C49.8705 81.0014 49.6205 81.4814 49.4705 81.8114C49.0405 82.4214 48.1905 82.5614 47.5905 82.1214C47.3005 81.9114 47.1005 81.5914 47.0405 81.2414C47.0105 81.0914 47.1105 80.9414 47.2605 80.9114C47.3905 80.8814 47.5205 80.9514 47.5705 81.0714Z" fill="#091414"/>
<path d="M39.7003 81.9707C40.3303 82.8307 41.1103 82.4607 41.5603 81.5807C41.6303 81.4607 41.7903 81.4307 41.9003 81.5007C41.9903 81.5507 42.0303 81.6507 42.0203 81.7507C41.9703 82.4407 41.4903 83.0307 40.8203 83.2207C40.0903 83.3607 39.3803 82.9307 39.1703 82.2207C39.1403 82.0607 39.2403 81.9107 39.4003 81.8807C39.5203 81.8607 39.6403 81.9107 39.7003 82.0107V81.9707Z" fill="#091414"/>
<path fill-rule="evenodd" clip-rule="evenodd" d="M25.4808 88.3813C29.1008 90.2713 31.9308 84.6713 27.8708 82.6613C26.1108 81.7913 37.0708 88.5113 40.8708 76.2813C42.2409 71.9113 46.3608 70.6813 48.8708 69.7013C49.7008 69.3713 46.1909 65.2913 45.4909 64.7013C43.8209 63.3513 43.5608 62.2813 35.0108 62.4413C19.1008 62.7713 21.9008 86.5213 25.4808 88.3813Z" fill="#091414"/>
<path fill-rule="evenodd" clip-rule="evenodd" d="M31.9808 82.4108C31.9808 82.4108 31.8108 80.2008 29.8508 80.1108C27.8908 80.0208 26.9308 82.1108 27.8508 84.3508C28.7708 86.5908 30.5808 87.2208 31.6108 87.0208C32.6408 86.8208 32.1508 85.1008 32.1508 85.1008L31.9808 82.4108Z" fill="#FEE1A5"/>
<path fill-rule="evenodd" clip-rule="evenodd" d="M30.7701 81.971C30.8301 81.681 29.1601 81.281 29.2101 82.431C29.2601 83.581 30.0201 85.081 30.3101 84.971C30.6001 84.861 29.3101 82.971 29.6801 82.661C30.0501 82.351 30.7101 82.261 30.7701 81.971Z" fill="#E8BA02"/>
<path fill-rule="evenodd" clip-rule="evenodd" d="M38.78 95.0511C37.52 94.6011 36.37 93.8911 35.4 92.9811C35.4 92.9811 35.29 94.6011 35.98 95.1711C36.67 95.7411 38.78 95.0511 38.78 95.0511Z" fill="#E8BA02"/>
<path fill-rule="evenodd" clip-rule="evenodd" d="M45.4809 70.5308C45.4809 70.5308 49.1109 72.9408 49.5909 75.6008C50.0709 78.2608 50.3209 80.2008 52.4909 80.9208C54.6609 81.6408 53.4909 77.0508 53.4909 77.0508C53.4909 77.0508 52.1009 66.4208 49.3809 65.0508C42.7309 61.7908 34.0209 62.1508 30.3809 64.8108C28.4109 66.2908 45.4809 70.5308 45.4809 70.5308Z" fill="#091414"/>
<path fill-rule="evenodd" clip-rule="evenodd" d="M27.6404 81.631C27.6404 81.631 22.4504 77.781 21.9604 78.631C21.4704 79.481 21.3204 79.631 23.0904 80.561C24.6504 81.471 26.1604 82.481 27.6104 83.561C27.5004 82.921 27.5104 82.271 27.6404 81.631Z" fill="#E8BA02"/>
<path fill-rule="evenodd" clip-rule="evenodd" d="M27.3809 84.0414C26.6709 83.6014 22.9309 80.6814 22.4509 81.4914C21.9709 82.3014 21.8009 82.4914 23.5809 83.4214C25.3609 84.3514 26.5809 85.8314 27.4409 85.9014C27.7209 85.9414 27.9909 85.8014 28.1209 85.5614C28.3309 85.1814 28.1909 84.5514 27.3809 84.0414Z" fill="#E8BA02"/>
<path fill-rule="evenodd" clip-rule="evenodd" d="M68.7908 115.561C68.6308 121.361 68.1508 127.151 67.3708 132.901L67.1808 133.091C65.0808 135.101 62.2808 136.211 59.3708 136.211H54.2608C53.9808 134.821 53.8208 133.411 53.7608 132.001C53.6408 130.201 53.8208 128.401 54.2808 126.661C55.0508 124.021 55.9008 121.101 56.7808 118.111C58.5708 112.011 60.1808 105.481 61.7808 100.241C62.9108 100.591 64.0608 100.861 65.2308 101.031C66.5208 101.281 67.8508 101.211 69.1008 100.811C68.9008 103.501 68.9808 109.201 68.7908 115.561Z" fill="#73B9F6"/>
<path fill-rule="evenodd" clip-rule="evenodd" d="M54.2608 136.221C53.9808 134.831 53.8208 133.421 53.7608 132.011C53.6408 130.211 53.8208 128.411 54.2808 126.671L56.2808 119.851" fill="#0273EC"/>
<path d="M72.9707 81.9512C72.9807 81.9312 72.9807 81.9112 72.9707 81.8912" stroke="#42BA58" stroke-width="0.5" stroke-miterlimit="10"/>
<path d="M72.9902 81.901C73.0002 81.921 73.0002 81.941 72.9902 81.961" stroke="#42BA58" stroke-width="0.5" stroke-miterlimit="10"/>
<path fill-rule="evenodd" clip-rule="evenodd" d="M78.7306 83.7109C78.2906 85.4709 78.2906 86.4509 77.2506 87.7109C76.3906 88.7109 72.4106 90.2909 71.7706 90.9309C71.0406 91.9309 70.5006 93.0509 70.1606 94.2409C69.7506 95.3209 69.6306 95.7509 68.8706 100.891C67.7606 101.281 66.5606 101.341 65.4206 101.071C64.3006 100.911 63.1906 100.671 62.1006 100.361C63.9806 94.2109 66.3706 89.7209 67.0106 87.8709C67.5706 86.2609 70.2006 85.2609 70.4806 84.8709C70.7906 84.4209 71.0306 83.9409 71.2006 83.4209C71.9906 81.0909 72.8406 78.1909 73.3206 78.4209C73.8006 78.6509 73.1406 81.4209 72.9906 81.9409C73.2906 81.2509 75.3606 76.4009 75.9906 76.6209C76.6206 76.8409 75.6106 80.7809 75.5206 81.1709C75.6906 80.7609 77.9006 75.7009 78.5206 76.0609C79.1406 76.4209 77.6806 80.8709 77.3306 81.9309C77.3106 81.9909 77.2906 82.0609 77.2706 82.1209C77.2706 82.1209 77.2706 82.2209 77.3606 82.1209C77.8806 81.0609 79.6106 77.4909 80.1006 77.7609C80.5906 78.0309 79.2706 81.5509 78.7306 83.7109Z" fill="#FEE1A5"/>
<path fill-rule="evenodd" clip-rule="evenodd" d="M46.3904 116.151C46.0804 118.151 44.8104 124.271 44.2804 126.781C44.2804 126.581 44.2804 126.371 44.2804 126.181C44.3104 122.301 43.8304 118.431 42.8604 114.671L42.6504 113.791C41.7104 110.051 40.5304 106.381 39.1404 102.791C39.0204 102.501 38.9304 102.271 38.8604 102.081H38.9804C40.1404 103.251 45.3104 108.611 44.6204 109.471C43.9304 110.331 42.6204 111.471 43.0504 112.411C43.2604 112.951 44.3604 113.251 45.2404 113.831C46.0904 114.271 46.5604 115.211 46.3904 116.151Z" fill="#0273EC"/>
<path d="M44.0107 136.221C44.0107 136.261 44.0107 136.311 44.0107 136.351" stroke="#42BA58" stroke-width="0.5" stroke-miterlimit="10"/>
<path fill-rule="evenodd" clip-rule="evenodd" d="M33.0703 131.101C31.4703 128.881 27.4203 123.241 26.9603 122.151C26.3803 120.791 28.9603 117.491 29.2903 116.711C29.4603 116.361 28.6703 115.481 27.6703 114.491L26.2003 113.101C25.5603 112.541 24.9603 111.921 24.4303 111.261C23.7603 110.261 26.8103 104.261 27.7003 102.581L27.8003 102.401L28.0003 102.351C28.0003 102.351 28.0003 102.431 28.0003 102.481C28.1003 102.691 28.2203 102.981 28.3703 103.371C28.5203 103.761 28.8303 104.601 29.1303 105.441C29.6403 106.931 30.2503 108.841 30.8403 111.111C31.1303 112.221 31.4103 113.391 31.6803 114.641C31.6803 114.821 31.7503 115.001 31.7903 115.191C32.1603 116.951 32.4803 118.831 32.7303 120.811C33.1003 124.231 33.2103 127.671 33.0703 131.101Z" fill="#0273EC"/>
<path d="M15.6309 136.221C17.7909 131.261 19.2709 126.041 20.0409 120.691" stroke="#0273EC" stroke-width="0.5" stroke-miterlimit="10"/>
<path d="M51.8002 136.221C51.6402 135.831 51.5002 135.451 51.3702 135.081C50.3702 132.491 48.2402 125.951 48.2402 125.951" stroke="#0273EC" stroke-width="0.5" stroke-miterlimit="10"/>
<path fill-rule="evenodd" clip-rule="evenodd" d="M30.3506 86.9709C32.1606 89.1909 33.1306 91.9809 33.1006 94.8409C32.8506 99.2509 30.9906 103.731 24.1006 103.841C19.2006 103.931 19.9906 95.3409 21.5506 92.1709C23.1106 89.0009 26.2806 84.3109 30.3506 86.9709Z" fill="#091414"/>
<path fill-rule="evenodd" clip-rule="evenodd" d="M77.2506 82.0914C77.1806 82.0914 77.1606 82.3814 77.0406 82.6914C76.9206 83.0014 76.7706 83.2414 76.8706 83.2714C76.9706 83.3014 77.0306 82.9814 77.1306 82.6814C77.2006 82.5014 77.2606 82.3114 77.2906 82.1214C77.2906 82.1214 77.2606 82.0914 77.2506 82.0914Z" fill="#FAB007"/>
<path fill-rule="evenodd" clip-rule="evenodd" d="M75.4808 81.0709C75.4108 81.0709 75.3908 81.3609 75.2708 81.6709C75.1508 81.9809 74.7408 82.9609 74.8408 82.9909C74.9408 83.0209 75.2608 81.9909 75.3508 81.6609C75.4308 81.4809 75.4908 81.2909 75.5208 81.1009L75.4808 81.0709Z" fill="#FAB007"/>
<path fill-rule="evenodd" clip-rule="evenodd" d="M73.0104 81.8112C72.9404 81.8112 72.9204 82.1012 72.8004 82.4012C72.6804 82.7012 72.5304 82.9611 72.6304 82.9911C72.7304 83.0211 72.7904 82.7012 72.8904 82.4012C72.9604 82.2212 73.0204 82.0312 73.0504 81.8412C73.0504 81.8412 73.0204 81.8112 73.0104 81.8112Z" fill="#FAB007"/>
<defs>
<linearGradient id="paint0_linear_1530_8416" x1="-1.4034" y1="66.8228" x2="64.2066" y2="110.953" gradientUnits="userSpaceOnUse">
<stop stop-color="white"/>
<stop offset="0.82" stop-opacity="0"/>
</linearGradient>
<linearGradient id="paint1_linear_1530_8416" x1="137.72" y1="74.9521" x2="194.61" y2="116.312" gradientUnits="userSpaceOnUse">
<stop stop-color="white"/>
<stop offset="0.91" stop-opacity="0"/>
</linearGradient>
<linearGradient id="paint2_linear_1530_8416" x1="58.6312" y1="21.6283" x2="162.941" y2="48.3883" gradientUnits="userSpaceOnUse">
<stop stop-color="white"/>
<stop offset="0.57" stop-opacity="0"/>
</linearGradient>
<linearGradient id="paint3_linear_1530_8416" x1="66.2495" y1="77.6264" x2="118.579" y2="85.5864" gradientUnits="userSpaceOnUse">
<stop stop-color="white"/>
<stop offset="0.91" stop-opacity="0"/>
</linearGradient>
<linearGradient id="paint4_linear_1530_8416" x1="125.618" y1="104.709" x2="193.308" y2="130.369" gradientUnits="userSpaceOnUse">
<stop stop-color="white"/>
<stop offset="0.38" stop-opacity="0"/>
</linearGradient>
</defs>
</svg>
