<svg width="32" height="33" viewBox="0 0 32 33" fill="none" xmlns="http://www.w3.org/2000/svg">
<path fill-rule="evenodd" clip-rule="evenodd" d="M11.8333 10C10.7977 10 9.95825 10.8395 9.95825 11.875V20.2083C9.95825 21.2439 10.7977 22.0833 11.8333 22.0833H20.1666C21.2021 22.0833 22.0416 21.2439 22.0416 20.2083V16.875C22.0416 16.5298 22.3214 16.25 22.6666 16.25C23.0118 16.25 23.2916 16.5298 23.2916 16.875V20.2083C23.2916 21.9342 21.8925 23.3333 20.1666 23.3333H11.8333C10.1074 23.3333 8.70825 21.9342 8.70825 20.2083V11.875C8.70825 10.1491 10.1074 8.75 11.8333 8.75H15.1666C15.5118 8.75 15.7916 9.02982 15.7916 9.375C15.7916 9.72018 15.5118 10 15.1666 10H11.8333ZM22.0417 10.8839L16.4419 16.4836C16.1979 16.7277 15.8021 16.7277 15.5581 16.4836C15.314 16.2395 15.314 15.8438 15.5581 15.5997L21.1578 10H18.5C18.1548 10 17.875 9.72018 17.875 9.375C17.875 9.02982 18.1548 8.75 18.5 8.75H22.6667C22.7514 8.75 22.8322 8.76687 22.9059 8.79742C22.9779 8.82723 23.0455 8.87109 23.1045 8.929C23.1073 8.93169 23.11 8.93441 23.1127 8.93716C23.1706 8.99612 23.2144 9.06372 23.2442 9.13576C23.2748 9.20945 23.2917 9.29026 23.2917 9.375V13.5417C23.2917 13.8868 23.0118 14.1667 22.6667 14.1667C22.3215 14.1667 22.0417 13.8868 22.0417 13.5417V10.8839Z" fill="#081B3A"/>
</svg>
