<svg width="24" height="25" viewBox="0 0 24 25" fill="none" xmlns="http://www.w3.org/2000/svg">
<path fill-rule="evenodd" clip-rule="evenodd" d="M4 11.1797C4.41421 11.1797 4.75 11.5155 4.75 11.9297C4.75 11.9728 4.77483 12.1307 5.0908 12.381C5.39928 12.6255 5.89264 12.8785 6.57083 13.105C7.91946 13.5552 9.83535 13.8464 12 13.8464C14.1646 13.8464 16.0805 13.5552 17.4292 13.105C18.1074 12.8785 18.6007 12.6255 18.9092 12.381C19.2252 12.1307 19.25 11.9728 19.25 11.9297C19.25 11.5155 19.5858 11.1797 20 11.1797C20.4142 11.1797 20.75 11.5155 20.75 11.9297C20.75 12.6244 20.3304 13.1687 19.8408 13.5567C19.3437 13.9506 18.6704 14.2719 17.9042 14.5278C16.3639 15.042 14.2798 15.3464 12 15.3464C9.7202 15.3464 7.6361 15.042 6.09583 14.5278C5.32958 14.2719 4.65627 13.9506 4.1592 13.5567C3.66962 13.1687 3.25 12.6244 3.25 11.9297C3.25 11.5155 3.58579 11.1797 4 11.1797Z" fill="#081B3A"/>
<path fill-rule="evenodd" clip-rule="evenodd" d="M5.09291 5.25875C4.77357 5.51042 4.75 5.66779 4.75 5.70768C4.75 5.74757 4.77357 5.90494 5.09291 6.15661C5.4038 6.40162 5.90013 6.65506 6.58032 6.88179C7.93284 7.33263 9.84904 7.62435 12 7.62435C14.151 7.62435 16.0672 7.33263 17.4197 6.88179C18.0999 6.65506 18.5962 6.40162 18.9071 6.15661C19.2264 5.90494 19.25 5.74757 19.25 5.70768C19.25 5.66779 19.2264 5.51042 18.9071 5.25875C18.5962 5.01375 18.0999 4.7603 17.4197 4.53358C16.0672 4.08274 14.151 3.79102 12 3.79102C9.84904 3.79102 7.93284 4.08274 6.58032 4.53358C5.90013 4.7603 5.4038 5.01375 5.09291 5.25875ZM6.10597 3.11055C7.64888 2.59625 9.73268 2.29102 12 2.29102C14.2673 2.29102 16.3511 2.59625 17.894 3.11055C18.6616 3.3664 19.3368 3.68757 19.8356 4.08064C20.3259 4.46704 20.75 5.01119 20.75 5.70768C20.75 6.40417 20.3259 6.94833 19.8356 7.33473C19.3368 7.72779 18.6616 8.04897 17.894 8.30481C16.3511 8.81911 14.2673 9.12435 12 9.12435C9.73268 9.12435 7.64888 8.81911 6.10597 8.30481C5.33844 8.04897 4.66321 7.72779 4.16445 7.33473C3.67415 6.94833 3.25 6.40417 3.25 5.70768C3.25 5.01119 3.67415 4.46704 4.16445 4.08064C4.66321 3.68757 5.33844 3.3664 6.10597 3.11055Z" fill="#081B3A"/>
<path fill-rule="evenodd" clip-rule="evenodd" d="M4 4.95801C4.41421 4.95801 4.75 5.29379 4.75 5.70801V18.1525C4.75 18.1956 4.77483 18.3534 5.0908 18.6038C5.39928 18.8482 5.89264 19.1013 6.57083 19.3277C7.91946 19.778 9.83535 20.0691 12 20.0691C14.1646 20.0691 16.0805 19.778 17.4292 19.3277C18.1074 19.1013 18.6007 18.8482 18.9092 18.6038C19.2252 18.3534 19.25 18.1956 19.25 18.1525V5.70801C19.25 5.29379 19.5858 4.95801 20 4.95801C20.4142 4.95801 20.75 5.29379 20.75 5.70801V18.1525C20.75 18.8471 20.3304 19.3915 19.8408 19.7794C19.3437 20.1733 18.6704 20.4947 17.9042 20.7505C16.3639 21.2647 14.2798 21.5691 12 21.5691C9.7202 21.5691 7.6361 21.2647 6.09583 20.7505C5.32958 20.4947 4.65627 20.1733 4.1592 19.7794C3.66962 19.3915 3.25 18.8471 3.25 18.1525V5.70801C3.25 5.29379 3.58579 4.95801 4 4.95801Z" fill="#081B3A"/>
</svg>
