<svg width="24" height="25" viewBox="0 0 24 25" fill="none" xmlns="http://www.w3.org/2000/svg">
<path fill-rule="evenodd" clip-rule="evenodd" d="M5.75 6.04102C5.75 4.79838 6.75736 3.79102 8 3.79102H12.25V8.04102C12.25 9.00751 13.0335 9.79102 14 9.79102H18.25V18.041C18.25 19.2837 17.2426 20.291 16 20.291H8C6.75736 20.291 5.75 19.2837 5.75 18.041V6.04102ZM18.1893 8.29102L13.75 3.85168V8.04102C13.75 8.17909 13.8619 8.29102 14 8.29102H18.1893ZM8 2.29102C5.92893 2.29102 4.25 3.96995 4.25 6.04102V18.041C4.25 20.1121 5.92893 21.791 8 21.791H16C18.0711 21.791 19.75 20.1121 19.75 18.041V8.04102C19.75 7.8421 19.671 7.65134 19.5303 7.51069L14.5303 2.51069C14.3897 2.37003 14.1989 2.29102 14 2.29102H8Z" fill="#081B3A"/>
<path d="M10 15.241L12 17.241M12 17.241L14 15.241M12 17.241L12 12.041" stroke="#081B3A" stroke-width="1.5" stroke-linecap="round" stroke-linejoin="round"/>
</svg>
