<svg width="42" height="52" viewBox="0 0 42 52" fill="none" xmlns="http://www.w3.org/2000/svg">
<g clip-path="url(#clip0_1_140)">
<path d="M0 5.27538C0 2.36186 2.43755 0 5.44443 0H30.3333L42 11.3044V46.7246C42 49.6381 39.5624 52 36.5555 52H5.44443C2.43756 52 0 49.6381 0 46.7246V5.27538Z" fill="url(#paint0_linear_1_140)"/>
<path d="M32.8 11H42L30 0V8.43334C30 9.85087 31.2536 11 32.8 11Z" fill="#7FD2CE"/>
<g opacity="0.85">
<path d="M10.4916 31.7277L12.9029 28.924C13.0942 28.7016 13.4346 28.6701 13.6659 28.8534L15.5714 30.3641C17.2875 31.7245 19.8354 31.3838 21.107 29.6237L24.5983 24.7909C25.0251 24.2002 25.9238 24.189 26.3661 24.7688L31.6745 31.7277H10.4916Z" fill="white"/>
<path d="M26.3661 24.7688C25.9238 24.189 25.0251 24.2002 24.5983 24.7909L21.107 29.6237C19.8354 31.3838 17.2875 31.7245 15.5714 30.3641L13.6659 28.8534C13.4346 28.6701 13.0942 28.7016 12.9029 28.924L10.4916 31.7277H31.6745L26.3661 24.7688ZM26.3661 24.7688L27.2417 24.1416" stroke="white" stroke-width="1.94783" stroke-linecap="round"/>
<path d="M13.1028 24.174C14.1932 24.174 15.0771 23.3175 15.0771 22.261C15.0771 21.2044 14.1932 20.3479 13.1028 20.3479C12.0124 20.3479 11.1284 21.2044 11.1284 22.261C11.1284 23.3175 12.0124 24.174 13.1028 24.174Z" fill="white"/>
</g>
</g>
<defs>
<linearGradient id="paint0_linear_1_140" x1="21" y1="52" x2="21" y2="0" gradientUnits="userSpaceOnUse">
<stop stop-color="#7FD2CE"/>
<stop offset="1" stop-color="#42B3AD"/>
</linearGradient>
<clipPath id="clip0_1_140">
<rect width="42" height="52" fill="white"/>
</clipPath>
</defs>
</svg>
