<svg width="24" height="25" viewBox="0 0 24 25" fill="none" xmlns="http://www.w3.org/2000/svg">
<path fill-rule="evenodd" clip-rule="evenodd" d="M20.7679 4.44992C21.0022 4.21561 21.0022 3.83571 20.7679 3.6014C20.5336 3.36708 20.1537 3.36708 19.9194 3.6014L16.4672 7.05359C15.1001 6.56608 13.5752 6.26931 11.9999 6.26931C6.6599 6.26931 1.8999 9.67931 1.8999 12.3693C1.8999 14.0242 3.70132 15.9515 6.331 17.1898L3.23186 20.2889C2.99755 20.5232 2.99755 20.9031 3.23186 21.1374C3.46618 21.3717 3.84608 21.3717 4.08039 21.1374L20.7679 4.44992ZM8.71391 13.8398C8.86557 14.1787 9.30511 14.2156 9.56767 13.9531L13.5837 9.93708C13.8462 9.67452 13.8093 9.23498 13.4704 9.08332C13.4396 9.06957 13.4087 9.05625 13.3776 9.04335C12.7198 8.77087 11.9959 8.69958 11.2976 8.83849C10.5992 8.97739 9.95779 9.32026 9.45432 9.82373C8.95085 10.3272 8.60798 10.9687 8.46908 11.667C8.33017 12.3653 8.40146 13.0892 8.67394 13.747C8.68684 13.7781 8.70016 13.8091 8.71391 13.8398Z" fill="#909498"/>
<path d="M11.9999 15.9693C11.7979 15.9693 11.5972 15.9523 11.3998 15.9189C11.188 15.8831 10.967 15.9383 10.8151 16.0902L9.58007 17.3252C9.24997 17.6553 9.40823 18.2147 9.86873 18.2913C10.5615 18.4065 11.2754 18.4693 11.9999 18.4693C17.3399 18.4693 22.0999 15.0593 22.0999 12.3693C22.0999 11.0521 20.9586 9.56229 19.1667 8.38471C18.9366 8.23349 18.6333 8.27205 18.4386 8.46675L15.7208 11.1845C15.5689 11.3364 15.5137 11.5574 15.5495 11.7692C15.5829 11.9666 15.5999 12.1673 15.5999 12.3693C15.5999 13.3241 15.2206 14.2398 14.5455 14.9149C13.8704 15.59 12.9547 15.9693 11.9999 15.9693Z" fill="#909498"/>
</svg>
