<svg width="32" height="32" viewBox="0 0 32 32" fill="none" xmlns="http://www.w3.org/2000/svg">
<rect width="32" height="32" rx="16" fill="#6F3FCF"/>
<path fill-rule="evenodd" clip-rule="evenodd" d="M19.5501 13.4756C19.5501 12.66 19.1523 12 18.6645 12C18.1756 12 17.779 12.66 17.779 13.4756C17.779 14.29 18.1756 14.9511 18.6645 14.9511C19.1523 14.9511 19.5501 14.2911 19.5501 13.4756ZM14.2379 13.4756C14.2379 12.66 13.8401 12 13.3523 12C12.8623 12 12.4667 12.66 12.4667 13.4756C12.4667 14.29 12.8623 14.9511 13.3523 14.9511C13.8401 14.9511 14.2379 14.2911 14.2379 13.4756ZM19.9747 18.3889C19.6908 18.1543 19.2706 18.1943 19.0361 18.4781C18.2994 19.3697 17.3081 19.8106 16.0089 19.8106C14.7087 19.8106 13.7174 19.3698 12.9806 18.4781C12.7461 18.1943 12.3259 18.1543 12.042 18.3889C11.7582 18.6234 11.7182 19.0436 11.9528 19.3274C12.9499 20.5342 14.3212 21.1439 16.0089 21.1439C17.6957 21.1439 19.0669 20.5341 20.0639 19.3274C20.2985 19.0436 20.2585 18.6234 19.9747 18.3889Z" fill="white"/>
<path fill-rule="evenodd" clip-rule="evenodd" d="M16 24.5C20.6944 24.5 24.5 20.6944 24.5 16C24.5 11.3056 20.6944 7.5 16 7.5C11.3056 7.5 7.5 11.3056 7.5 16C7.5 20.6944 11.3056 24.5 16 24.5ZM16 26C21.5228 26 26 21.5228 26 16C26 10.4772 21.5228 6 16 6C10.4772 6 6 10.4772 6 16C6 21.5228 10.4772 26 16 26Z" fill="white"/>
</svg>
