<svg width="42" height="52" viewBox="0 0 42 52" fill="none" xmlns="http://www.w3.org/2000/svg">
<g clip-path="url(#clip0_1_25)">
<path d="M0 4.52174C0 2.02445 2.08933 0 4.66666 0H30.3333L42 11.3044V47.4783C42 49.9756 39.9107 52 37.3333 52H4.66666C2.08933 52 0 49.9756 0 47.4783V4.52174Z" fill="url(#paint0_linear_1_25)"/>
<path d="M32.4 11H42L30 0V8.80001C30 10.015 31.0746 11 32.4 11Z" fill="#52A0FF"/>
<path d="M9.48166 30.8668H6V21.133H9.47715C10.4368 21.133 11.2631 21.3279 11.9562 21.7177C12.6521 22.1042 13.1888 22.6618 13.5659 23.3906C13.943 24.1162 14.1316 24.9844 14.1316 25.9952C14.1316 27.0091 13.943 27.8805 13.5659 28.6093C13.1918 29.3381 12.6567 29.8973 11.9607 30.287C11.2647 30.6736 10.4384 30.8668 9.48166 30.8668ZM8.27669 28.8611H9.39433C9.92172 28.8611 10.3679 28.7693 10.7327 28.5855C11.1006 28.3986 11.3781 28.096 11.5652 27.6777C11.7553 27.2563 11.8503 26.6955 11.8503 25.9952C11.8503 25.295 11.7553 24.7372 11.5652 24.3223C11.375 23.904 11.0945 23.6029 10.7235 23.4192C10.3556 23.2322 9.90175 23.1387 9.36217 23.1387H8.27669V28.8611ZM15.4607 21.133H18.2801L20.6718 27.1597H20.7822L23.1737 21.133H25.9932V30.8668H23.7763V24.8878H23.6981L21.4353 30.805H20.0187L17.7558 24.8545H17.6776V30.8668H15.4607V21.133ZM33.5946 24.3127C33.5424 24.1131 33.4658 23.9372 33.3646 23.7852C33.2635 23.6299 33.1393 23.4983 32.9921 23.3906C32.8449 23.2829 32.6763 23.2022 32.4862 23.1483C32.296 23.0912 32.0875 23.0627 31.8607 23.0627C31.4039 23.0627 31.0083 23.1767 30.674 23.4049C30.3429 23.633 30.0868 23.9657 29.906 24.4029C29.7251 24.8371 29.6346 25.3647 29.6346 25.9857C29.6346 26.6099 29.722 27.1422 29.8968 27.5826C30.0716 28.0231 30.3245 28.3589 30.6556 28.5903C30.9868 28.8215 31.3885 28.9372 31.8607 28.9372C32.2777 28.9372 32.6303 28.8674 32.9186 28.7281C33.2098 28.5855 33.4306 28.3842 33.5808 28.1244C33.7311 27.8647 33.8061 27.5589 33.8061 27.2071L34.2293 27.2595H31.9388V25.5437H36V26.8317C36 27.703 35.8207 28.4493 35.4619 29.0703C35.1062 29.6914 34.6156 30.1682 33.9902 30.5009C33.3678 30.8336 32.6517 31 31.8423 31C30.9439 31 30.1543 30.7987 29.4737 30.3963C28.7929 29.9939 28.2625 29.4204 27.8823 28.6758C27.5021 27.928 27.312 27.0409 27.312 26.0142C27.312 25.2158 27.427 24.5075 27.6569 23.8897C27.8869 23.2686 28.2073 22.7426 28.6182 22.3118C29.0322 21.8808 29.5105 21.5544 30.0532 21.3327C30.5989 21.1109 31.1861 21 31.8147 21C32.3605 21 32.8679 21.0808 33.3371 21.2423C33.8093 21.4039 34.2262 21.6321 34.5881 21.9268C34.9529 22.2214 35.2489 22.5716 35.4758 22.9771C35.7026 23.3827 35.8436 23.8279 35.8989 24.3127H33.5946Z" fill="white" fill-opacity="0.85"/>
</g>
<defs>
<linearGradient id="paint0_linear_1_25" x1="21" y1="52" x2="21" y2="0" gradientUnits="userSpaceOnUse">
<stop stop-color="#52A0FF"/>
<stop offset="1" stop-color="#006AF5"/>
</linearGradient>
<clipPath id="clip0_1_25">
<rect width="42" height="52" fill="white"/>
</clipPath>
</defs>
</svg>
