<svg width="42" height="52" viewBox="0 0 42 52" fill="none" xmlns="http://www.w3.org/2000/svg">
<g clip-path="url(#clip0_1_284)">
<path d="M0 5.27555C0 2.36205 2.43756 0.000213623 5.44446 0.000213623H30.3333L42 11.3045V46.7246C42 49.6381 39.5624 52 36.5555 52H5.44446C2.43756 52 0 49.6381 0 46.7246V5.27555Z" fill="url(#paint0_linear_1_284)"/>
<path d="M33.0554 11.3043H41.9998L30.3332 0V8.66663C30.3332 10.1234 31.552 11.3043 33.0554 11.3043Z" fill="#FCCF53"/>
<path opacity="0.85" d="M26.4704 22.2979C26.5014 22.5536 26.1748 22.6965 25.9973 22.5049L23.4788 19.7843C23.3063 19.598 23.4737 19.3053 23.7282 19.3484L25.9625 19.7262C26.0811 19.7463 26.172 19.8394 26.1861 19.9553L26.4704 22.2979ZM26.1126 26C26.3046 26 26.4362 26.1873 26.3658 26.3604L21.2531 38.9419C21.1625 39.1647 20.837 39.1647 20.7465 38.9419L15.6338 26.3604C15.5635 26.1873 15.6951 26 15.8871 26H26.1126ZM16.5791 24.6435C16.3436 24.6435 16.2191 24.3732 16.3767 24.2034L20.797 19.4361C20.9052 19.3193 21.0942 19.3194 21.2023 19.4364L25.6099 24.2037C25.767 24.3736 25.6426 24.6435 25.4071 24.6435H16.5791ZM15.3456 23.2221C15.1916 23.3942 14.9 23.309 14.87 23.0831L14.5406 20.6119C14.5233 20.4813 14.6079 20.3582 14.739 20.3236L18.0654 19.4454C18.325 19.3769 18.5189 19.6758 18.3427 19.8727L15.3456 23.2221ZM13.5664 24.346C13.5874 24.5037 13.4606 24.6435 13.2964 24.6435H10.0526C9.8018 24.6435 9.6844 24.3428 9.87235 24.1821L12.7841 21.6898C12.9477 21.5498 13.2063 21.6439 13.2342 21.8537L13.5664 24.346ZM13.7409 26C13.8531 26 13.9537 26.0666 13.9945 26.1679L17.8446 35.7293C17.9586 36.0123 17.5693 36.227 17.3763 35.9873L9.67624 26.426C9.53682 26.2529 9.66417 26 9.89091 26H13.7409ZM28.005 26.1676C28.0458 26.0665 28.1465 26 28.2585 26H32.1082C32.3351 26 32.4624 26.253 32.3228 26.4262L24.6111 35.9867C24.4179 36.2262 24.0288 36.0113 24.1431 35.7281L28.005 26.1676ZM28.4606 24.6435C28.3227 24.6435 28.2064 24.5434 28.1903 24.4104L27.8428 21.5432C27.8146 21.3102 28.091 21.1601 28.2814 21.3051L32.0476 24.1723C32.2509 24.327 32.1379 24.6435 31.8794 24.6435H28.4606Z" fill="white"/>
</g>
<defs>
<linearGradient id="paint0_linear_1_284" x1="20.9999" y1="52" x2="20.9999" y2="0.000213623" gradientUnits="userSpaceOnUse">
<stop stop-color="#FCC735"/>
<stop offset="1" stop-color="#E8AB02"/>
</linearGradient>
<clipPath id="clip0_1_284">
<rect width="42" height="52" fill="white"/>
</clipPath>
</defs>
</svg>
