<svg width="42" height="52" viewBox="0 0 42 52" fill="none" xmlns="http://www.w3.org/2000/svg">
<g clip-path="url(#clip0_1_47)">
<path d="M0 5.27538C0 2.36186 2.46149 0 5.49791 0H30.3332L41.9998 11.3044V46.7246C41.9998 49.6381 39.5383 52 36.5019 52H5.49791C2.46149 52 0 49.6381 0 46.7246V5.27538Z" fill="url(#paint0_linear_1_47)"/>
<path d="M33.0823 11.3044H42L30.3334 3.05176e-05V8.66669C30.3334 10.1234 31.5642 11.3044 33.0823 11.3044Z" fill="#5FCBF2"/>
<path opacity="0.85" d="M27.0864 18.3722C26.8287 18.3767 26.5799 18.48 26.3945 18.6596C26.2091 18.8393 26.1024 19.0804 26.0979 19.33L25.8673 33.862C25.8562 34.4801 25.7196 35.0944 25.4651 35.6697C25.2106 36.245 24.8434 36.7699 24.3845 37.2148C23.4574 38.1132 22.2128 38.6301 20.9244 38.6521C19.6359 38.6741 18.4091 38.1992 17.5139 37.3319C16.6187 36.4647 16.1285 35.276 16.1509 34.0276L16.376 19.955C16.3956 19.2099 16.7182 18.4921 17.2735 17.9581C17.8289 17.4241 18.5719 17.1171 19.3409 17.104C20.1098 17.0908 20.8423 17.3725 21.3788 17.8879C21.9153 18.4032 22.2123 19.1104 22.2052 19.8553L21.9802 33.9279C21.9703 34.176 21.8619 34.4141 21.6776 34.5926C21.4935 34.771 21.2478 34.8761 20.9918 34.8857C20.7341 34.89 20.4889 34.795 20.3099 34.6216C20.1309 34.4483 20.0329 34.2106 20.0374 33.961L20.2345 21.4288C20.2345 21.182 20.1345 20.9485 19.9559 20.7785C19.7774 20.6087 19.5345 20.5158 19.2798 20.5202C19.025 20.5245 18.7788 20.6256 18.5939 20.8017C18.4091 20.9778 18.3005 21.2148 18.2916 21.4617L18.0944 33.9939C18.0878 34.3648 18.1564 34.7309 18.2968 35.0711C18.437 35.4112 18.6461 35.719 18.9121 35.9767C19.178 36.2343 19.4956 36.4369 19.8467 36.5729C20.1978 36.7088 20.5756 36.7755 20.9583 36.7689C21.7262 36.7384 22.4626 36.4228 23.015 35.8877C23.5674 35.3525 23.893 34.6388 23.9245 33.8949L24.1481 19.8224C24.1542 18.5847 23.6566 17.4115 22.7631 16.5572C21.8695 15.7028 20.652 15.236 19.3743 15.2578C18.0966 15.2795 16.8614 15.7882 15.9365 16.6736C15.0118 17.559 14.4715 18.7498 14.433 19.9879L14.2081 34.0605C14.1765 35.8084 14.8627 37.4725 16.1158 38.6867C17.369 39.901 19.0864 40.5659 20.8903 40.5353C22.6941 40.5046 24.4366 39.781 25.7345 38.5234C27.0324 37.2659 27.7792 35.5774 27.8108 33.8296L28.0434 19.2997C28.046 19.1756 28.0233 19.0531 27.9765 18.9393C27.9297 18.8255 27.8598 18.7225 27.771 18.6364C27.682 18.5501 27.5758 18.4824 27.4583 18.4371C27.3407 18.3918 27.2144 18.3697 27.0864 18.3722Z" fill="white"/>
</g>
<defs>
<linearGradient id="paint0_linear_1_47" x1="20.9999" y1="52" x2="20.9999" y2="0" gradientUnits="userSpaceOnUse">
<stop stop-color="#5FCBF2"/>
<stop offset="1" stop-color="#12AEE2"/>
</linearGradient>
<clipPath id="clip0_1_47">
<rect width="42" height="52" fill="white"/>
</clipPath>
</defs>
</svg>
