<svg width="42" height="52" viewBox="0 0 42 52" fill="none" xmlns="http://www.w3.org/2000/svg">
<g clip-path="url(#clip0_1_245)">
<path d="M0 5.27557C0 2.36206 2.43756 0.000213623 5.44446 0.000213623H30.3333L42 11.3046V46.7248C42 49.6383 39.5624 52.0002 36.5555 52.0002H5.44446C2.43756 52.0002 0 49.6383 0 46.7248V5.27557Z" fill="url(#paint0_linear_1_245)"/>
<path d="M32.8 11H42L30 0V8.43331C30 9.85084 31.2536 11 32.8 11Z" fill="#006AF5"/>
<g opacity="0.85">
<path d="M11.2444 36.1739V21.9305H17.4814C18.3495 21.9305 19.1335 22.1339 19.8335 22.5409C20.5475 22.9343 21.1075 23.4769 21.5135 24.1688C21.9334 24.8606 22.1435 25.6406 22.1435 26.5087C22.1435 27.3905 21.9334 28.184 21.5135 28.8895C21.1075 29.5948 20.5475 30.1577 19.8335 30.5783C19.1335 30.9853 18.3495 31.1887 17.4814 31.1887H14.3945V36.1739H11.2444ZM14.3524 28.4417H17.1244C17.4605 28.4417 17.7615 28.3604 18.0275 28.1977C18.2935 28.0213 18.5034 27.7906 18.6575 27.5057C18.8254 27.2209 18.9095 26.8954 18.9095 26.5291C18.9095 26.1628 18.8254 25.844 18.6575 25.5727C18.5034 25.2878 18.2935 25.0708 18.0275 24.9217C17.7615 24.7588 17.4605 24.6775 17.1244 24.6775H14.3524V28.4417Z" fill="white"/>
<path d="M28.2822 36.3774C27.2462 36.3774 26.3221 36.2146 25.5102 35.8891C24.7121 35.5499 24.0681 35.0887 23.5782 34.5054L25.4262 32.959C25.8601 33.4066 26.3431 33.7322 26.8751 33.9357C27.4072 34.1256 27.9392 34.2205 28.4711 34.2205C28.6811 34.2205 28.8702 34.2002 29.0381 34.1595C29.2201 34.1053 29.3742 34.0374 29.5002 33.956C29.6262 33.8611 29.7171 33.7525 29.7731 33.6304C29.8431 33.4948 29.8781 33.3524 29.8781 33.2032C29.8781 32.9047 29.7522 32.6674 29.5002 32.491C29.3601 32.4232 29.1432 32.3417 28.8492 32.2468C28.5551 32.1383 28.1772 32.023 27.7151 31.9009C27.0011 31.7245 26.3921 31.5211 25.8882 31.2905C25.3982 31.0463 25.0062 30.775 24.7121 30.4765C24.4602 30.1916 24.2642 29.8865 24.1241 29.5609C23.9981 29.2217 23.9352 28.8487 23.9352 28.4417C23.9352 27.9535 24.0472 27.5126 24.2712 27.1192C24.4952 26.7122 24.8031 26.3663 25.1951 26.0815C25.6012 25.7966 26.0632 25.5796 26.5812 25.4303C27.0992 25.2676 27.6451 25.1861 28.2191 25.1861C28.7932 25.1861 29.3532 25.2539 29.8991 25.3897C30.4452 25.5253 30.9492 25.7219 31.4112 25.9796C31.8872 26.2238 32.3002 26.5156 32.6501 26.8547L31.0542 28.5638C30.8022 28.3333 30.5152 28.123 30.1932 27.9331C29.8852 27.7432 29.5632 27.5939 29.2272 27.4855C28.8912 27.3769 28.5902 27.3227 28.3241 27.3227C28.0862 27.3227 27.8692 27.343 27.6732 27.3836C27.4912 27.4244 27.3372 27.4855 27.2112 27.5668C27.0852 27.6482 26.9871 27.7567 26.9172 27.8924C26.8611 28.0145 26.8332 28.1501 26.8332 28.2994C26.8332 28.4486 26.8682 28.591 26.9382 28.7266C27.0221 28.8623 27.1342 28.9777 27.2742 29.0726C27.4282 29.1539 27.6522 29.2489 27.9462 29.3575C28.2541 29.4659 28.6671 29.588 29.1851 29.7236C29.8572 29.9 30.4242 30.0967 30.8862 30.3137C31.3621 30.5308 31.7401 30.7817 32.0202 31.0666C32.2581 31.3108 32.4332 31.5889 32.5451 31.9009C32.6572 32.2129 32.7132 32.5588 32.7132 32.9386C32.7132 33.6034 32.5172 34.2002 32.1252 34.7293C31.7472 35.2447 31.2221 35.6517 30.5502 35.9501C29.8781 36.235 29.1222 36.3774 28.2822 36.3774Z" fill="white"/>
</g>
</g>
<defs>
<linearGradient id="paint0_linear_1_245" x1="20.9999" y1="52.0002" x2="20.9999" y2="0.000213623" gradientUnits="userSpaceOnUse">
<stop stop-color="#006AF5"/>
<stop offset="1" stop-color="#0250B6"/>
</linearGradient>
<clipPath id="clip0_1_245">
<rect width="42" height="52" fill="white"/>
</clipPath>
</defs>
</svg>
