<svg width="32" height="32" viewBox="0 0 32 32" fill="none" xmlns="http://www.w3.org/2000/svg">
<rect width="32" height="32" rx="16" fill="#1969E3"/>
<path d="M26 16V17.75C26 19.8211 24.3211 21.5 22.25 21.5C20.7458 21.5 19.4485 20.6144 18.851 19.3362C18.0329 20.3552 16.84 21 15.5 21C12.9924 21 11 18.742 11 16C11 13.258 12.9924 11 15.5 11C16.659 11 17.7079 11.4824 18.501 12.2719L18.5 11.75C18.5 11.3358 18.8358 11 19.25 11C19.6297 11 19.9435 11.2822 19.9932 11.6482L20 11.75V17.75C20 18.9926 21.0074 20 22.25 20C23.4409 20 24.4156 19.0748 24.4948 17.904L24.5 17.75V16C24.5 11.3056 20.6944 7.5 16 7.5C11.3056 7.5 7.5 11.3056 7.5 16C7.5 20.6944 11.3056 24.5 16 24.5C17.033 24.5 18.0395 24.316 18.9852 23.9612C19.373 23.8158 19.8053 24.0122 19.9508 24.4C20.0963 24.7878 19.8998 25.2202 19.512 25.3657C18.3985 25.7834 17.2136 26 16 26C10.4772 26 6 21.5228 6 16C6 10.4772 10.4772 6 16 6C21.4292 6 25.8479 10.3267 25.9962 15.7201L26 16V17.75V16ZM15.5 12.5C13.8655 12.5 12.5 14.0476 12.5 16C12.5 17.9524 13.8655 19.5 15.5 19.5C17.1345 19.5 18.5 17.9524 18.5 16C18.5 14.0476 17.1345 12.5 15.5 12.5Z" fill="white"/>
</svg>
