<svg width="42" height="52" viewBox="0 0 42 52" fill="none" xmlns="http://www.w3.org/2000/svg">
<g clip-path="url(#clip0_1_178)">
<path d="M0 5.27536C0 2.36185 2.43756 0 5.44446 0H30.3333L42 11.3044V46.7246C42 49.6381 39.5624 52 36.5555 52H5.44446C2.43756 52 0 49.6381 0 46.7246V5.27536Z" fill="url(#paint0_linear_1_178)"/>
<path d="M33.0554 11.3044H41.9998L30.3332 3.05176e-05V8.66671C30.3332 10.1235 31.552 11.3044 33.0554 11.3044Z" fill="#9271D6"/>
<path opacity="0.85" fill-rule="evenodd" clip-rule="evenodd" d="M29.1655 22.6417C29.1655 21.2051 27.8008 20.1328 26.3501 20.4296L18.8769 21.9587C17.2582 22.2899 16.0999 23.6739 16.0999 25.2768V32.2978C15.5151 31.8722 14.7881 31.62 14.0003 31.62C12.0673 31.62 10.5004 33.1384 10.5004 35.0114C10.5004 36.8844 12.0673 38.4026 14.0003 38.4026C15.9333 38.4026 17.5003 36.8844 17.5003 35.0114C17.5003 34.9947 17.5002 34.9781 17.5 34.9615V25.2768C17.5 24.3151 18.195 23.4846 19.1661 23.2859L26.6393 21.7568C27.2196 21.6381 27.7655 22.067 27.7655 22.6417V30.0361C27.1808 29.6111 26.4543 29.3592 25.6671 29.3592C23.734 29.3592 22.167 30.8775 22.167 32.7505C22.167 34.6234 23.734 36.1418 25.6671 36.1418C27.6 36.1418 29.167 34.6234 29.167 32.7505C29.167 32.7083 29.1662 32.6663 29.1647 32.6245L29.1655 22.6417Z" fill="white"/>
</g>
<defs>
<linearGradient id="paint0_linear_1_178" x1="20.9999" y1="52" x2="20.9999" y2="0" gradientUnits="userSpaceOnUse">
<stop stop-color="#9271D6"/>
<stop offset="1" stop-color="#6A40BF"/>
</linearGradient>
<clipPath id="clip0_1_178">
<rect width="42" height="52" fill="white"/>
</clipPath>
</defs>
</svg>
