<svg width="32" height="32" viewBox="0 0 32 32" fill="none" xmlns="http://www.w3.org/2000/svg">
<rect width="32" height="32" rx="16" fill="#E94949"/>
<path fill-rule="evenodd" clip-rule="evenodd" d="M14.4013 7.34542C14.8972 7.09922 15.4467 6.98055 15.9999 7.00013C16.5532 6.98055 17.1026 7.09922 17.5985 7.34542C18.0944 7.59161 18.5211 7.95755 18.8399 8.41013C19.3971 9.25817 19.6831 10.2557 19.6599 11.2701C19.7228 12.5028 19.3707 13.721 18.6599 14.7301C18.3393 15.1268 17.9341 15.4468 17.4738 15.6666C17.0136 15.8864 16.51 16.0005 15.9999 16.0005C15.4899 16.0005 14.9863 15.8864 14.526 15.6666C14.0658 15.4468 13.6605 15.1268 13.3399 14.7301C12.6291 13.721 12.2771 12.5028 12.3399 11.2701C12.3167 10.2557 12.6027 9.25817 13.1599 8.41013C13.4788 7.95755 13.9055 7.59161 14.4013 7.34542ZM8 23.4301C8 19.8801 11.58 17.0001 16 17.0001C20.42 17.0001 24 19.9101 24 23.4801C23.9767 23.8983 23.7914 24.291 23.4833 24.5748C23.1753 24.8586 22.7687 25.0112 22.35 25.0001H9.65C9.43856 25.0054 9.22813 24.969 9.03076 24.893C8.83339 24.817 8.65293 24.7028 8.4997 24.557C8.34647 24.4112 8.22347 24.2366 8.13773 24.0433C8.05199 23.8499 8.00519 23.6416 8 23.4301Z" fill="white"/>
</svg>
