<svg width="24" height="25" viewBox="0 0 24 25" fill="none" xmlns="http://www.w3.org/2000/svg">
<path fill-rule="evenodd" clip-rule="evenodd" d="M15.8 7.36951V9.36873H8.2V7.36951C8.2 5.27082 9.90132 3.56951 12 3.56951C14.0987 3.56951 15.8 5.27082 15.8 7.36951ZM7 7.36951C7 4.60808 9.23858 2.36951 12 2.36951C14.7614 2.36951 17 4.60808 17 7.36951V9.36951C18.6569 9.36951 20 10.7127 20 12.3695V18.3695C20 20.0264 18.6569 21.3695 17 21.3695H7C5.34315 21.3695 4 20.0264 4 18.3695V12.3695C4 10.7127 5.34315 9.36951 7 9.36951V7.36951ZM12.6 15.609C12.9587 15.4015 13.2 15.0137 13.2 14.5695C13.2 13.9068 12.6627 13.3695 12 13.3695C11.3373 13.3695 10.8 13.9068 10.8 14.5695C10.8 15.0137 11.0413 15.4015 11.4 15.609V17.3695C11.4 17.7009 11.6686 17.9695 12 17.9695C12.3314 17.9695 12.6 17.7009 12.6 17.3695V15.609Z" fill="#909498"/>
</svg>
