<svg width="42" height="52" viewBox="0 0 42 52" fill="none" xmlns="http://www.w3.org/2000/svg">
<g clip-path="url(#clip0_1_351)">
<path d="M0 5.27536C0 2.36185 2.43756 0 5.44446 0H30.3333L42 11.3044V46.7246C42 49.6381 39.5624 52 36.5555 52H5.44446C2.43756 52 0 49.6381 0 46.7246V5.27536Z" fill="url(#paint0_linear_1_351)"/>
<path d="M33.0554 11.3044H41.9998L30.3332 3.05176e-05V8.66671C30.3332 10.1235 31.552 11.3044 33.0554 11.3044Z" fill="#F8944E"/>
<g opacity="0.85">
<path d="M12.8337 33.9129L9.2895 28.9435L4.74879 22.8346H7.75407L11.2168 27.7407L15.8391 33.9129H12.8337ZM4.66713 33.9129L9.0281 27.8832L10.8901 29.1334L7.5091 33.9129H4.66713ZM11.4781 28.7694L9.63241 27.5666L12.8337 22.8346H15.6757L11.4781 28.7694Z" fill="white"/>
<path d="M17.4437 33.9129V22.8346H19.6814L23.8464 29.4024L22.3764 29.3866L26.5903 22.8346H28.7301V33.9129H26.3291V30.1146C26.3291 29.1651 26.3509 28.3104 26.3943 27.5508C26.4488 26.7912 26.5359 26.0368 26.6557 25.2877L26.9497 26.0315L23.6014 31.0642H22.5234L19.2404 26.0632L19.5181 25.2877C19.6378 25.9946 19.7195 26.7226 19.763 27.4717C19.8175 28.2102 19.8448 29.0912 19.8448 30.1146V33.9129H17.4437Z" fill="white"/>
<path d="M31.7035 33.9129V22.8346H34.1535V31.7763H39.3312V33.9129H31.7035Z" fill="white"/>
</g>
</g>
<defs>
<linearGradient id="paint0_linear_1_351" x1="20.9999" y1="52" x2="20.9999" y2="0" gradientUnits="userSpaceOnUse">
<stop stop-color="#F8954F"/>
<stop offset="1" stop-color="#DE640D"/>
</linearGradient>
<clipPath id="clip0_1_351">
<rect width="42" height="52" fill="white"/>
</clipPath>
</defs>
</svg>
