<svg width="42" height="52" viewBox="0 0 42 52" fill="none" xmlns="http://www.w3.org/2000/svg">
<g clip-path="url(#clip0_1_229)">
<path d="M0 5.27537C0 2.36186 2.43755 0 5.44443 0H30.3334L42 11.3043V46.7246C42 49.6381 39.5624 52 36.5555 52H5.44443C2.43756 52 0 49.6381 0 46.7246V5.27537Z" fill="url(#paint0_linear_1_229)"/>
<path d="M32.8 11H42L30 0V8.4333C30 9.85084 31.2536 11 32.8 11Z" fill="#F17732"/>
<path opacity="0.85" d="M16 36V22H22.2947C23.1708 22 23.9621 22.2 24.6686 22.5999C25.3892 22.9867 25.9544 23.5199 26.3641 24.2C26.7881 24.88 27 25.6467 27 26.5C27 27.3667 26.7881 28.1467 26.3641 28.84C25.9544 29.5333 25.3892 30.0866 24.6686 30.5C23.9621 30.9 23.1708 31.1 22.2947 31.1H19.1792V36H16ZM19.1368 28.4H21.9344C22.2736 28.4 22.5774 28.32 22.8459 28.16C23.1143 27.9866 23.3262 27.76 23.4817 27.48C23.6512 27.1999 23.7361 26.88 23.7361 26.5199C23.7361 26.1599 23.6512 25.8467 23.4817 25.58C23.3262 25.3 23.1143 25.0866 22.8459 24.94C22.5774 24.7799 22.2736 24.6999 21.9344 24.6999H19.1368V28.4Z" fill="white"/>
</g>
<defs>
<linearGradient id="paint0_linear_1_229" x1="21" y1="52" x2="21" y2="0" gradientUnits="userSpaceOnUse">
<stop stop-color="#F18360"/>
<stop offset="1" stop-color="#AE4E09"/>
</linearGradient>
<clipPath id="clip0_1_229">
<rect width="42" height="52" fill="white"/>
</clipPath>
</defs>
</svg>
