<svg width="42" height="52" viewBox="0 0 42 52" fill="none" xmlns="http://www.w3.org/2000/svg">
<g clip-path="url(#clip0_1_2)">
<path d="M0 5.27535C0 2.36185 2.43756 0 5.44447 0H30.3333L42 11.3044V46.7246C42 49.6381 39.5624 52 36.5555 52H5.44447C2.43756 52 0 49.6381 0 46.7246V5.27535Z" fill="url(#paint0_linear_1_2)"/>
<path d="M33.0554 11.3044H41.9999L30.3332 3.05176e-05V8.66671C30.3332 10.1235 31.552 11.3044 33.0554 11.3044Z" fill="#DE640D"/>
<g opacity="0.85">
<path d="M10.6685 36.1741L16.4225 21.9306H19.2365L24.9695 36.1741H21.7355L18.7745 28.5029C18.6905 28.2859 18.5855 28.0079 18.4595 27.6687C18.3476 27.3296 18.2285 26.9701 18.1025 26.5902C17.9765 26.2104 17.8575 25.8509 17.7455 25.5119C17.6336 25.1591 17.5495 24.8675 17.4935 24.6368L18.0605 24.6165C17.9765 24.9285 17.8785 25.2541 17.7665 25.5932C17.6686 25.9188 17.5635 26.2579 17.4515 26.6106C17.3395 26.9498 17.2205 27.2821 17.0945 27.6077C16.9685 27.9332 16.8495 28.252 16.7375 28.564L13.7765 36.1741H10.6685ZM13.3355 33.1829L14.3645 30.7208H21.1055L22.1555 33.1829H13.3355Z" fill="white"/>
<path d="M26.8656 36.1741V25.4101H29.8476V36.1741H26.8656ZM28.3356 23.1921C27.7616 23.1921 27.3136 23.0565 26.9916 22.7852C26.6696 22.5139 26.5086 22.1273 26.5086 21.6254C26.5086 21.1641 26.6696 20.7911 26.9916 20.5062C27.3276 20.2079 27.7756 20.0586 28.3356 20.0586C28.9095 20.0586 29.3575 20.201 29.6795 20.4859C30.0015 20.7572 30.1625 21.137 30.1625 21.6254C30.1625 22.1001 29.9946 22.48 29.6586 22.7648C29.3366 23.0498 28.8956 23.1921 28.3356 23.1921Z" fill="white"/>
</g>
</g>
<defs>
<linearGradient id="paint0_linear_1_2" x1="20.9999" y1="52" x2="20.9999" y2="0" gradientUnits="userSpaceOnUse">
<stop stop-color="#DE640D"/>
<stop offset="1" stop-color="#AE4E09"/>
</linearGradient>
<clipPath id="clip0_1_2">
<rect width="42" height="52" fill="white"/>
</clipPath>
</defs>
</svg>
