<svg width="42" height="52" viewBox="0 0 42 52" fill="none" xmlns="http://www.w3.org/2000/svg">
<g clip-path="url(#clip0_1_67)">
<path d="M0 5.27555C0 2.36205 2.43756 0.000213623 5.44441 0.000213623H30.3334L42 11.3045V46.7246C42 49.6381 39.5625 52 36.5556 52H5.44441C2.43756 52 0 49.6381 0 46.7246V5.27555Z" fill="url(#paint0_linear_1_67)"/>
<path d="M33.0555 11.3043H41.9999L30.3333 0V8.66663C30.3333 10.1234 31.5521 11.3043 33.0555 11.3043Z" fill="#F8944E"/>
<path opacity="0.85" fill-rule="evenodd" clip-rule="evenodd" d="M16.5411 22.2448C16.0828 21.7877 15.3254 21.7877 14.8672 22.2448L8.49303 28.6038C8.0533 29.0424 8.0533 29.7404 8.49303 30.1791L14.8672 36.5381C15.3254 36.9952 16.0828 36.9952 16.5411 36.5381L17.3183 35.7626C17.7581 35.324 17.7581 34.626 17.3183 34.1874L12.8267 29.7065C12.6509 29.531 12.6509 29.2518 12.8267 29.0764L17.3183 24.5955C17.7581 24.1568 17.7581 23.4589 17.3183 23.0203L16.5411 22.2448ZM25.508 22.2448C25.9662 21.7877 26.7237 21.7877 27.1819 22.2448L33.5561 28.6038C33.9957 29.0424 33.9957 29.7404 33.5561 30.1791L27.1819 36.5381C26.7237 36.9952 25.9662 36.9952 25.508 36.5381L24.7308 35.7626C24.291 35.324 24.291 34.626 24.7308 34.1874L29.2223 29.7065C29.3982 29.531 29.3982 29.2518 29.2223 29.0764L24.7308 24.5955C24.291 24.1568 24.291 23.4589 24.7308 23.0203L25.508 22.2448Z" fill="white"/>
</g>
<defs>
<linearGradient id="paint0_linear_1_67" x1="21" y1="52" x2="21" y2="0.000213623" gradientUnits="userSpaceOnUse">
<stop stop-color="#F8954F"/>
<stop offset="1" stop-color="#DE640D"/>
</linearGradient>
<clipPath id="clip0_1_67">
<rect width="42" height="52" fill="white"/>
</clipPath>
</defs>
</svg>
