<svg width="42" height="52" viewBox="0 0 42 52" fill="none" xmlns="http://www.w3.org/2000/svg">
<g clip-path="url(#clip0_1_262)">
<path d="M0 4.52174C0 2.02445 2.08934 0 4.66667 0H30.3333L42 11.3044V47.4783C42 49.9756 39.9106 52 37.3334 52H4.66667C2.08934 52 0 49.9756 0 47.4783V4.52174Z" fill="url(#paint0_linear_1_262)"/>
<path d="M32.4 11H42L30 0V8.80001C30 10.015 31.0746 11 32.4 11Z" fill="#8EABCD"/>
<g opacity="0.85">
<path fill-rule="evenodd" clip-rule="evenodd" d="M18.5978 17.6017C18.0892 17.7141 17.7285 18.1524 17.7285 18.6578V20.6611C17.7285 21.4951 16.7967 22.0163 16.0514 21.5993L14.261 20.5976C13.8091 20.3449 13.2371 20.4285 12.8823 20.799C11.7262 22.0064 10.8877 23.4382 10.3998 24.9706C10.2459 25.4537 10.4573 25.9755 10.909 26.2283L12.6972 27.2285C13.4425 27.6455 13.4425 28.688 12.6972 29.1049L10.9071 30.1063C10.455 30.3592 10.2437 30.8818 10.3982 31.3651C10.6409 32.1242 10.9739 32.8681 11.4001 33.5833C11.8263 34.2985 12.3247 34.95 12.8817 35.5331C13.2364 35.9045 13.8091 35.9884 14.2613 35.7355L16.0514 34.734C16.7967 34.3171 17.7285 34.8383 17.7285 35.6722V37.6729C17.7285 38.1784 18.0892 38.6167 18.5978 38.7292C20.2115 39.0859 21.9103 39.0981 23.5676 38.7318C24.0761 38.6193 24.4369 38.181 24.4369 37.6756V35.6723C24.4369 34.8384 25.3686 34.3172 26.114 34.7342L27.9045 35.7358C28.3562 35.9884 28.9283 35.9049 29.283 35.5344C30.4392 34.327 31.2776 32.8952 31.7657 31.3628C31.9194 30.8798 31.7081 30.3579 31.2563 30.1052L29.4682 29.1048C28.7228 28.6879 28.7228 27.6455 29.4682 27.2285L31.2582 26.2271C31.7104 25.9741 31.9216 25.4515 31.7671 24.9682C31.5244 24.2092 31.1915 23.4652 30.7653 22.75C30.3391 22.0348 29.8407 21.3835 29.2836 20.8002C28.9289 20.429 28.3563 20.3449 27.904 20.5978L26.114 21.5993C25.3686 22.0163 24.4369 21.4951 24.4369 20.6611V18.6604C24.4369 18.155 24.0761 17.7167 23.5675 17.6043C21.954 17.2475 20.255 17.2352 18.5978 17.6017ZM21.0825 31.4167C22.935 31.4167 24.4367 29.9616 24.4367 28.1667C24.4367 26.3717 22.935 24.9167 21.0825 24.9167C19.2301 24.9167 17.7284 26.3717 17.7284 28.1667C17.7284 29.9616 19.2301 31.4167 21.0825 31.4167Z" fill="white"/>
</g>
</g>
<defs>
<linearGradient id="paint0_linear_1_262" x1="21" y1="52" x2="21" y2="0" gradientUnits="userSpaceOnUse">
<stop stop-color="#8EABCD"/>
<stop offset="1" stop-color="#426D9E"/>
</linearGradient>
<clipPath id="clip0_1_262">
<rect width="42" height="52" fill="white"/>
</clipPath>
</defs>
</svg>
