<svg width="24" height="25" viewBox="0 0 24 25" fill="none" xmlns="http://www.w3.org/2000/svg">
<path fill-rule="evenodd" clip-rule="evenodd" d="M12.0002 4.06958C9.55391 4.06958 7.34905 5.18047 5.81535 6.82373C5.51388 7.14673 5.53134 7.65296 5.85434 7.95442C6.17734 8.25589 6.68357 8.23844 6.98504 7.91543C8.25133 6.55869 10.0465 5.66958 12.0002 5.66958C14.3031 5.66958 16.3617 6.87504 17.571 8.68087L15.636 9.08659C15.3215 9.15253 15.077 9.40022 15.0152 9.71552C14.9533 10.0308 15.0861 10.3525 15.3523 10.5324L19.0432 13.0263C19.1727 13.1166 19.3303 13.1696 19.5002 13.1696C19.7844 13.1696 20.0341 13.0213 20.176 12.798L22.6685 9.00926C22.8466 8.73856 22.8438 8.38716 22.6615 8.11932C22.4791 7.85148 22.1532 7.7201 21.836 7.78659L19.2344 8.3321C17.8036 5.80028 15.0823 4.06958 12.0002 4.06958ZM4.95704 11.7128C4.82751 11.6225 4.67003 11.5696 4.5002 11.5696C4.28619 11.5696 4.0918 11.6536 3.94824 11.7905C3.93516 11.803 3.9225 11.8159 3.91029 11.8292C3.87867 11.8637 3.85004 11.901 3.82481 11.9406L1.33186 15.7299C1.15377 16.0006 1.15656 16.352 1.33893 16.6198C1.5213 16.8877 1.84723 17.0191 2.16437 16.9526L4.76599 16.4071C6.19679 18.9389 8.91805 20.6696 12.0002 20.6696C14.4157 20.6696 16.6423 19.6809 18.1047 17.9935C18.3941 17.6596 18.358 17.1544 18.0241 16.865C17.6903 16.5757 17.185 16.6118 16.8956 16.9456C15.7581 18.2582 13.9847 19.0696 12.0002 19.0696C9.6973 19.0696 7.63866 17.8641 6.42937 16.0583L8.36437 15.6526C8.67884 15.5866 8.92335 15.3389 8.98522 15.0236C9.04709 14.7083 8.91432 14.3866 8.64808 14.2067L4.95704 11.7128Z" fill="#909498"/>
</svg>
