<svg width="32" height="32" viewBox="0 0 32 32" fill="none" xmlns="http://www.w3.org/2000/svg">
<rect width="32" height="32" rx="16" fill="#1969E3"/>
<path d="M14.2456 20.3208C13.8013 20.5874 13.3125 20.7926 12.7793 20.9365C12.2461 21.0804 11.6748 21.1523 11.0654 21.1523C9.67741 21.1523 8.57503 20.7588 7.7583 19.9717C6.94157 19.1846 6.5332 18.0547 6.5332 16.582C6.5332 15.1432 6.96696 13.9774 7.83447 13.0845C8.70622 12.1916 9.85938 11.7451 11.2939 11.7451C11.861 11.7451 12.3794 11.8065 12.8491 11.9292C13.3188 12.0519 13.7865 12.2424 14.252 12.5005L13.6553 13.6304C13.2744 13.4272 12.8957 13.2791 12.519 13.186C12.1466 13.0929 11.7404 13.0464 11.3003 13.0464C10.3566 13.0464 9.59066 13.3447 9.00244 13.9414C8.41423 14.5339 8.12012 15.3844 8.12012 16.4932C8.12012 17.6104 8.39307 18.4504 8.93896 19.0132C9.48486 19.5718 10.2275 19.8511 11.167 19.8511C11.4717 19.8511 11.7552 19.8236 12.0176 19.7686C12.2842 19.7093 12.5233 19.6247 12.7349 19.5146V17.3374H10.8115V16.0615H14.2456V20.3208ZM17.7305 21H16.2007V11.8975H17.7305V21ZM24.8906 13.1797H21.4883V15.9155H24.624V17.1914H21.4883V21H19.9775V11.8975H24.8906V13.1797Z" fill="white"/>
</svg>
