<svg width="42" height="52" viewBox="0 0 42 52" fill="none" xmlns="http://www.w3.org/2000/svg">
<g clip-path="url(#clip0_1_197)">
<mask id="mask0_1_197" style="mask-type:luminance" maskUnits="userSpaceOnUse" x="0" y="0" width="42" height="52">
<path d="M42 0H0V52H42V0Z" fill="white"/>
</mask>
<g mask="url(#mask0_1_197)">
<path d="M0 5.27537C0 2.36186 2.40967 0 5.38215 0H29.9863L41.5195 11.3043V46.7245C41.5195 49.638 39.1099 51.9999 36.1374 51.9999H5.38215C2.40968 51.9999 0 49.638 0 46.7245V5.27537Z" fill="url(#paint0_linear_1_197)"/>
<path d="M32.6775 11.3043H41.5195L29.9864 3.43323e-05V8.66668C29.9864 10.1234 31.1912 11.3043 32.6775 11.3043Z" fill="#F9827F"/>
<g opacity="0.85">
<path d="M6.08269 33.9128V22.8346H10.8782C11.5455 22.8346 12.1484 22.9928 12.6866 23.3094C13.2356 23.6153 13.6662 24.0374 13.9783 24.5755C14.3013 25.1136 14.4628 25.7202 14.4628 26.3955C14.4628 27.0812 14.3013 27.6985 13.9783 28.2471C13.6662 28.7957 13.2356 29.2336 12.6866 29.5606C12.1484 29.8772 11.5455 30.0355 10.8782 30.0355H8.50464V33.9128H6.08269ZM8.47237 27.8989H10.6038C10.8621 27.8989 11.0935 27.8357 11.298 27.709C11.5026 27.5719 11.664 27.3925 11.7824 27.1709C11.9116 26.9494 11.9762 26.6961 11.9762 26.4113C11.9762 26.1264 11.9116 25.8785 11.7824 25.6675C11.664 25.4459 11.5026 25.277 11.298 25.161C11.0935 25.0344 10.8621 24.9711 10.6038 24.9711H8.47237V27.8989Z" fill="white"/>
<path d="M16.6315 33.9128V22.8346H21.2655C22.0944 22.8346 22.8425 22.9717 23.5099 23.2461C24.1881 23.5098 24.7693 23.8896 25.2538 24.3856C25.7489 24.8709 26.1257 25.4511 26.384 26.1264C26.6423 26.8016 26.7715 27.5507 26.7715 28.3737C26.7715 29.1861 26.6423 29.9353 26.384 30.621C26.1257 31.2962 25.7542 31.8818 25.2699 32.3777C24.7855 32.8631 24.2042 33.2429 23.526 33.5172C22.8479 33.781 22.0944 33.9128 21.2655 33.9128H16.6315ZM19.0535 32.1878L18.7952 31.7763H21.1849C21.6692 31.7763 22.1052 31.6972 22.4927 31.5389C22.8802 31.3701 23.2085 31.1433 23.4776 30.8584C23.7575 30.5629 23.9675 30.2042 24.1074 29.7822C24.2473 29.3602 24.3173 28.8907 24.3173 28.3737C24.3173 27.8568 24.2473 27.3925 24.1074 26.981C23.9675 26.5589 23.7575 26.2003 23.4776 25.9048C23.2085 25.6094 22.8802 25.3826 22.4927 25.2243C22.1052 25.0555 21.6692 24.9711 21.1849 24.9711H18.7468L19.0535 24.5913V32.1878Z" fill="white"/>
<path d="M28.9621 33.9128V22.8346H31.3841V33.9128H28.9621ZM30.0762 29.5132V27.4717H35.9213V29.5132H30.0762ZM30.0762 24.9711V22.8346H36.5994V24.9711H30.0762Z" fill="white"/>
</g>
</g>
</g>
<defs>
<linearGradient id="paint0_linear_1_197" x1="20.7598" y1="51.9999" x2="20.7598" y2="0" gradientUnits="userSpaceOnUse">
<stop stop-color="#F9827F"/>
<stop offset="1" stop-color="#F33B34"/>
</linearGradient>
<clipPath id="clip0_1_197">
<rect width="42" height="52" fill="white"/>
</clipPath>
</defs>
</svg>
