<svg width="42" height="52" viewBox="0 0 42 52" fill="none" xmlns="http://www.w3.org/2000/svg">
<g clip-path="url(#clip0_1_329)">
<path d="M0 5.27535C0 2.36185 2.43756 0 5.4444 0H30.3333L42 11.3044V46.7246C42 49.6381 39.5625 52 36.5556 52H5.4444C2.43756 52 0 49.6381 0 46.7246V5.27535Z" fill="url(#paint0_linear_1_329)"/>
<path d="M33.0552 11.3046H41.9998L30.333 0.00019455V8.66685C30.333 10.1236 31.5519 11.3046 33.0552 11.3046Z" fill="#52A0FF"/>
<path opacity="0.85" d="M15.2039 36.1739L10.7309 21.9305H13.9649L16.3589 29.8865C16.4569 30.1713 16.5409 30.4834 16.6109 30.8225C16.6949 31.148 16.7579 31.4668 16.7999 31.7788C16.8559 32.0773 16.8979 32.3622 16.9258 32.6334C16.9679 32.8911 17.0029 33.1082 17.0309 33.2846L16.5269 33.2642C16.6529 32.6945 16.7579 32.2197 16.8419 31.8399C16.9258 31.4464 17.0029 31.1006 17.0728 30.8021C17.1569 30.4902 17.2549 30.1782 17.3668 29.8661L19.6769 23.9857H22.2809L24.5489 29.8661C24.7168 30.2731 24.8499 30.6665 24.9479 31.0463C25.0598 31.4126 25.1509 31.7721 25.2209 32.1248C25.2909 32.4638 25.3609 32.8098 25.4309 33.1625L24.9689 33.2439C25.0108 32.959 25.0389 32.7148 25.0529 32.5113C25.0809 32.2943 25.1019 32.0976 25.1159 31.9212C25.1439 31.7449 25.1719 31.5685 25.1999 31.3923C25.2279 31.2023 25.2699 30.9853 25.3259 30.7411C25.3819 30.4834 25.4659 30.1849 25.5779 29.8458L27.9508 21.9305H31.1429L26.6278 36.1739H24.2969L20.6639 27.7499L20.9999 27.7906L17.6189 36.1739H15.2039Z" fill="white"/>
</g>
<defs>
<linearGradient id="paint0_linear_1_329" x1="21" y1="52" x2="21" y2="0" gradientUnits="userSpaceOnUse">
<stop stop-color="#52A0FF"/>
<stop offset="1" stop-color="#006AF5"/>
</linearGradient>
<clipPath id="clip0_1_329">
<rect width="42" height="52" fill="white"/>
</clipPath>
</defs>
</svg>
