<svg width="24" height="25" viewBox="0 0 24 25" fill="none" xmlns="http://www.w3.org/2000/svg">
<path fill-rule="evenodd" clip-rule="evenodd" d="M18 4.54102H6C5.17157 4.54102 4.5 5.21259 4.5 6.04102V14.4804L5.40901 13.5713C6.28769 12.6927 7.71231 12.6927 8.59099 13.5713L9.46967 14.45C9.76256 14.7429 10.2374 14.7429 10.5303 14.45L13.4634 11.517C14.3096 10.6708 15.67 10.635 16.5595 11.4356L19.5 14.082V6.04102C19.5 5.21259 18.8284 4.54102 18 4.54102ZM4.5 18.041V16.6001C4.51031 16.5908 4.52042 16.5812 4.53033 16.5713L6.46967 14.632C6.76256 14.3391 7.23744 14.3391 7.53033 14.632L8.40901 15.5107C9.28769 16.3894 10.7123 16.3894 11.591 15.5107L14.524 12.5776C14.8061 12.2956 15.2596 12.2837 15.5561 12.5505L19.4983 16.0985L19.5 16.1V18.041C19.5 18.8694 18.8284 19.541 18 19.541H6C5.17157 19.541 4.5 18.8694 4.5 18.041ZM6 3.04102C4.34315 3.04102 3 4.38416 3 6.04102V18.041C3 19.6979 4.34315 21.041 6 21.041H18C19.6569 21.041 21 19.6979 21 18.041V6.04102C21 4.38416 19.6569 3.04102 18 3.04102H6ZM8.5 10.041C9.32843 10.041 10 9.36944 10 8.54102C10 7.71259 9.32843 7.04102 8.5 7.04102C7.67157 7.04102 7 7.71259 7 8.54102C7 9.36944 7.67157 10.041 8.5 10.041Z" fill="#081B3A"/>
</svg>
