<svg width="192" height="176" viewBox="0 0 192 176" fill="none" xmlns="http://www.w3.org/2000/svg">
<g clip-path="url(#clip0_124_65205)">
<path d="M189.053 3.70312H51.0891V170.977H189.053V3.70312Z" fill="#F5F5F6"/>
<path d="M165.712 17.647H119.963C116.958 17.647 114.522 20.0832 114.522 23.0884V39.4254C114.522 42.4306 116.958 44.8668 119.963 44.8668H165.712C168.717 44.8668 171.153 42.4306 171.153 39.4254V23.0884C171.153 20.0832 168.717 17.647 165.712 17.647Z" fill="#E6E9EC"/>
<path d="M164.074 44.8667H159.716L162.978 48.129H164.062V44.8667H164.074Z" fill="#E6E9EC"/>
<path d="M165.7 101.272H137.384C134.379 101.272 131.943 103.708 131.943 106.713V109.988C131.943 112.993 134.379 115.43 137.384 115.43H165.7C168.705 115.43 171.141 112.993 171.141 109.988V106.713C171.141 103.708 168.705 101.272 165.7 101.272Z" fill="#E6E9EC"/>
<path d="M164.074 115.429H159.716L162.978 118.692H164.062V115.429H164.074Z" fill="#E6E9EC"/>
<path d="M142.019 60.3347H104.987C101.982 60.3347 99.5454 62.7709 99.5454 65.7762V79.9466C99.5454 82.9518 101.982 85.3881 104.987 85.3881H142.019C145.024 85.3881 147.46 82.9518 147.46 79.9466V65.7762C147.46 62.7709 145.024 60.3347 142.019 60.3347Z" fill="#E6E9EC"/>
<path d="M106.624 85.3755H110.982L107.72 88.6378H106.637V85.3755H106.624Z" fill="#E6E9EC"/>
<path d="M138.757 130.897H104.987C101.982 130.897 99.5454 133.333 99.5454 136.338V142.876C99.5454 145.881 101.982 148.317 104.987 148.317H138.757C141.762 148.317 144.198 145.881 144.198 142.876V136.338C144.198 133.333 141.762 130.897 138.757 130.897Z" fill="#E6E9EC"/>
<path d="M106.624 148.317H110.982L107.72 151.58H106.637V148.317H106.624Z" fill="#E6E9EC"/>
<path d="M48.6957 161.178H55.233V169.239H48.6957V161.178ZM59.1377 0.440918H189.04V6.97821H59.1377C56.9712 6.97821 55.2204 8.74164 55.2204 10.8956H48.6831C48.6831 5.12661 53.3688 0.440918 59.1377 0.440918Z" fill="#42454D"/>
<path d="M69.0129 14.9138H13.9435C7.62692 14.9138 2.50635 20.0344 2.50635 26.3509V145.698C2.50635 152.014 7.62692 157.135 13.9435 157.135H69.0129C75.3295 157.135 80.4501 152.014 80.4501 145.698V26.3509C80.4501 20.0344 75.3295 14.9138 69.0129 14.9138Z" fill="white"/>
<path d="M0.868896 145.71V26.3511C0.868896 19.1462 6.72601 13.2891 13.9309 13.2891H69.0004C76.2052 13.2891 82.0624 19.1462 82.0624 26.3511V145.71C82.0624 152.915 76.2052 158.772 69.0004 158.772H13.9435C6.73861 158.772 0.881492 152.915 0.881492 145.71H0.868896ZM13.9435 16.5514C8.53983 16.5514 4.14384 20.9474 4.14384 26.3511V145.71C4.14384 151.114 8.53983 155.51 13.9435 155.51H69.013C74.4166 155.51 78.8126 151.114 78.8126 145.71V26.3511C78.8126 20.9474 74.4166 16.5514 69.013 16.5514H13.9435Z" fill="#42454D"/>
<path d="M61.9973 15.896C61.9973 18.3018 60.0449 20.2542 57.639 20.2542H25.3053C22.8994 20.2542 20.9471 18.3018 20.9471 15.896V14.1577H61.9847V15.896H61.9973ZM0.86912 75.1473C0.390474 75.1473 0 74.7568 0 74.2782V41.176C0 40.6974 0.390474 40.3069 0.86912 40.3069V75.1599V75.1473ZM82.0878 55.9763C82.5664 55.9763 82.9569 55.5858 82.9569 55.1071V41.176C82.9569 40.6974 82.5664 40.3069 82.0878 40.3069V55.9889V55.9763ZM82.0878 75.1473C82.5664 75.1473 82.9569 74.7568 82.9569 74.2782V60.347C82.9569 59.8684 82.5664 59.4779 82.0878 59.4779V75.1599V75.1473ZM189.922 175.335H56.1653L17.7351 171.985C16.3495 171.859 15.2789 170.7 15.2789 169.302C15.2789 167.816 16.4755 166.619 17.9618 166.619H189.922V175.335Z" fill="#42454D"/>
<path d="M64.4283 32.4473H38.2791C35.2739 32.4473 32.8376 34.8835 32.8376 37.8887V48.7842C32.8376 51.7894 35.2739 54.2257 38.2791 54.2257H64.4283C67.4335 54.2257 69.8697 51.7894 69.8697 48.7842V37.8887C69.8697 34.8835 67.4335 32.4473 64.4283 32.4473Z" fill="#EBEDEF"/>
<path d="M62.7779 54.2383H58.4197L61.682 57.5006H62.7653V54.2383H62.7779Z" fill="#EBEDEF"/>
<path d="M64.4154 100.403H44.8035C41.7983 100.403 39.3621 102.839 39.3621 105.844V109.119C39.3621 112.124 41.7983 114.56 44.8035 114.56H64.4154C67.4206 114.56 69.8568 112.124 69.8568 109.119V105.844C69.8568 102.839 67.4206 100.403 64.4154 100.403Z" fill="#EBEDEF"/>
<path d="M62.7779 114.56H58.4197L61.682 117.823H62.7653V114.56H62.7779Z" fill="#EBEDEF"/>
<path d="M44.6898 68.1694H18.5406C15.5353 68.1694 13.0991 70.6057 13.0991 73.6109V81.244C13.0991 84.2493 15.5353 86.6855 18.5406 86.6855H44.6898C47.695 86.6855 50.1312 84.2493 50.1312 81.244V73.6109C50.1312 70.6057 47.695 68.1694 44.6898 68.1694Z" fill="#EBEDEF"/>
<path d="M20.1785 86.6853H24.5367L21.2743 89.9477H20.1911V86.6853H20.1785Z" fill="#EBEDEF"/>
<path d="M56.6685 128.29H18.5406C15.5353 128.29 13.0991 130.726 13.0991 133.731V137.006C13.0991 140.011 15.5353 142.448 18.5406 142.448H56.6685C59.6737 142.448 62.11 140.011 62.11 137.006V133.731C62.11 130.726 59.6737 128.29 56.6685 128.29Z" fill="#EBEDEF"/>
<path d="M20.1785 142.448H24.5367L21.2743 145.71H20.1911V142.448H20.1785Z" fill="#EBEDEF"/>
<path d="M82.5156 109.119C98.9121 109.119 112.204 95.8549 112.204 79.4931C112.204 63.1313 98.9121 49.8674 82.5156 49.8674C66.119 49.8674 52.8269 63.1313 52.8269 79.4931C52.8269 95.8549 66.119 109.119 82.5156 109.119Z" fill="white"/>
<path d="M82.5154 98.9914C71.7333 98.9914 62.9917 90.275 62.9917 79.4929C62.9917 68.7108 71.7459 59.9944 82.5154 59.9944C93.285 59.9944 102.039 68.7108 102.039 79.4929C102.039 90.2624 93.285 98.9914 82.5154 98.9914Z" fill="url(#paint0_linear_124_65205)" stroke="white" stroke-width="8.81716"/>
<path d="M88.2435 72.3685C88.6451 71.967 89.2969 71.967 89.6986 72.3685C90.1003 72.7702 90.1002 73.4219 89.6986 73.8236L84.2543 79.267L89.6986 84.7113C90.1003 85.113 90.1003 85.7647 89.6986 86.1664C89.2969 86.568 88.6452 86.568 88.2435 86.1664L82.7992 80.722L77.3558 86.1664C76.9541 86.568 76.3024 86.568 75.9007 86.1664C75.4993 85.7647 75.4992 85.1129 75.9007 84.7113L81.3441 79.267L75.9007 73.8236C75.4993 73.4219 75.4992 72.7701 75.9007 72.3685C76.3023 71.9669 76.9541 71.9671 77.3558 72.3685L82.7992 77.8119L88.2435 72.3685Z" fill="white"/>
<mask id="mask0_124_65205" style="mask-type:luminance" maskUnits="userSpaceOnUse" x="75" y="72" width="15" height="15">
<path d="M88.2435 72.3685C88.6451 71.967 89.2969 71.967 89.6986 72.3685C90.1003 72.7702 90.1002 73.4219 89.6986 73.8236L84.2543 79.267L89.6986 84.7113C90.1003 85.113 90.1003 85.7647 89.6986 86.1664C89.2969 86.568 88.6452 86.568 88.2435 86.1664L82.7992 80.722L77.3558 86.1664C76.9541 86.568 76.3024 86.568 75.9007 86.1664C75.4993 85.7647 75.4992 85.1129 75.9007 84.7113L81.3441 79.267L75.9007 73.8236C75.4993 73.4219 75.4992 72.7701 75.9007 72.3685C76.3023 71.9669 76.9541 71.9671 77.3558 72.3685L82.7992 77.8119L88.2435 72.3685Z" fill="white"/>
</mask>
<g mask="url(#mask0_124_65205)">
</g>
</g>
<defs>
<linearGradient id="paint0_linear_124_65205" x1="95.59" y1="88.9525" x2="67.3373" y2="68.5092" gradientUnits="userSpaceOnUse">
<stop offset="0.17" stop-color="#F83C3C"/>
<stop offset="1" stop-color="#ED6E6E"/>
</linearGradient>
<clipPath id="clip0_124_65205">
<rect width="192" height="175.336" fill="white"/>
</clipPath>
</defs>
</svg>
