<?xml version="1.0" encoding="UTF-8"?>
<svg id="Layer_1" xmlns="http://www.w3.org/2000/svg" version="1.1" viewBox="0 0 24 24">
  <!-- Generator: Adobe Illustrator 29.0.0, SVG Export Plug-In . SVG Version: 2.1.0 Build 186)  -->
  <defs>
    <style>
      .st0 {
        fill: #081b3a;
      }
    </style>
  </defs>
  <path class="st0" d="M21,12.6c-.5-.6-1.3-1.1-2-1.3-.1-1.4-.6-2.7-1.5-3.8l4-4c.3-.3.3-.8,0-1.1-.3-.3-.8-.3-1.1,0L2.5,20.5c-.3.3-.3.8,0,1.1.2.1.3.2.5.2s.4,0,.5-.2l2.4-2.4c.3,0,.6,0,.9,0h10.9c0,0,.2,0,.3,0,.9,0,1.9-.3,2.6-1,.8-.7,1.3-1.7,1.4-2.7,0-1.1-.3-2.1-1-2.9ZM19.6,17.1c-.5.4-1.1.6-1.8.6H7.3l9.1-9.1c.7,1,1.1,2.2,1.1,3.4,0,.4.3.7.7.8.6,0,1.3.4,1.7.9.4.5.6,1.2.6,1.8,0,.7-.3,1.3-.8,1.7Z"/>
  <path class="st0" d="M14.6,5.3c-.6-.2-1.2-.4-1.8-.5-1.7-.2-3.5.2-4.9,1.2-1.3.9-2.3,2.2-2.8,3.8-.8.3-1.6.9-2.1,1.6-.6.8-1,1.9-1,2.9s.1,1.3.4,1.9c.1.2.2.5.4.7.1.2.4.4.6.4s.3,0,.4-.1c.3-.2.5-.7.2-1,0-.2-.2-.3-.2-.5-.2-.4-.2-.9-.2-1.3,0-.7.2-1.5.7-2,.4-.6,1-1,1.8-1.2.2,0,.4-.3.5-.5.3-1.3,1.2-2.5,2.3-3.3,1.1-.8,2.5-1.1,3.9-.9.5,0,1,.2,1.4.4.4.2.8,0,1-.4.2-.4,0-.8-.4-1Z"/>
</svg>