<svg width="24" height="25" viewBox="0 0 24 25" fill="none" xmlns="http://www.w3.org/2000/svg">
<path fill-rule="evenodd" clip-rule="evenodd" d="M11.9189 4.71992C11.6357 4.5853 11.323 4.52447 11.0099 4.5431C10.6982 4.52335 10.3865 4.58375 10.1047 4.71853C9.8229 4.85332 9.58027 5.058 9.39994 5.3131C9.01989 5.90939 8.82823 6.60632 8.84994 7.3131C8.79383 8.2081 9.03269 9.09683 9.52994 9.8431C9.70261 10.0697 9.92715 10.2515 10.1847 10.3734C10.4422 10.4952 10.7252 10.5534 11.0099 10.5431C11.2946 10.5534 11.5777 10.4952 11.8352 10.3734C12.0927 10.2515 12.3173 10.0697 12.4899 9.8431C12.9872 9.09683 13.2261 8.2081 13.1699 7.3131C13.1898 6.60792 13.002 5.91246 12.6299 5.3131C12.4467 5.05859 12.2021 4.85454 11.9189 4.71992ZM9.41135 3.38838C9.90723 3.14219 10.4567 3.02352 11.0099 3.0431C11.5632 3.02352 12.1127 3.14219 12.6085 3.38838C13.1044 3.63458 13.5311 4.00052 13.8499 4.4531C14.4072 5.30114 14.6932 6.29865 14.6699 7.3131C14.7328 8.5458 14.3807 9.76401 13.6699 10.7731C13.3494 11.1698 12.9441 11.4898 12.4838 11.7096C12.0236 11.9294 11.52 12.0435 11.0099 12.0435C10.4999 12.0435 9.9963 11.9294 9.53605 11.7096C9.07579 11.4898 8.67053 11.1698 8.34994 10.7731C7.63915 9.76401 7.28707 8.5458 7.34994 7.3131C7.32674 6.29865 7.61273 5.30114 8.16994 4.4531C8.48881 4.00052 8.91548 3.63458 9.41135 3.38838ZM18.0512 11.5112C18.345 11.2192 18.8199 11.2206 19.1119 11.5143L20.8119 13.2243C21.1033 13.5175 21.1026 13.9911 20.8103 14.2834L19.0403 16.0534C18.7474 16.3463 18.2726 16.3463 17.9797 16.0534C17.6868 15.7605 17.6868 15.2857 17.9797 14.9928L18.4594 14.5131H15.56C15.2762 14.5131 15.0041 14.6258 14.8034 14.8265C14.6027 15.0271 14.49 15.2993 14.49 15.5831V16.0431C14.49 16.4573 14.1542 16.7931 13.74 16.7931C13.3258 16.7931 12.99 16.4573 12.99 16.0431V15.5831C12.99 14.9015 13.2608 14.2478 13.7427 13.7658C14.2247 13.2838 14.8784 13.0131 15.56 13.0131H18.4867L18.0481 12.5719C17.7561 12.2781 17.7575 11.8032 18.0512 11.5112ZM4.50003 19.0299C4.5091 16.7131 6.91012 14.5831 10.22 14.5831H10.98C11.3942 14.5831 11.73 14.2473 11.73 13.8331C11.73 13.4189 11.3942 13.0831 10.98 13.0831H10.22C6.39615 13.0831 3 15.6049 3 19.0431L3.00034 19.0658C3.0168 19.6094 3.24758 20.1245 3.64234 20.4986C4.03473 20.8705 4.5575 21.0731 5.09778 21.0631H11.01C11.4242 21.0631 11.76 20.7273 11.76 20.3131C11.76 19.8989 11.4242 19.5631 11.01 19.5631H5.08124L5.07248 19.5633C4.92467 19.5667 4.78149 19.5116 4.67418 19.4099C4.56917 19.3104 4.50685 19.1742 4.50003 19.0299ZM21.1201 17.7631C21.1201 17.3488 20.7843 17.0131 20.3701 17.0131C19.9559 17.0131 19.6201 17.3488 19.6201 17.7631V18.2207C19.6181 18.5045 19.5045 18.7761 19.3038 18.9768C19.1031 19.1774 18.8315 19.2911 18.5478 19.2931H15.5707L16.0403 18.8234C16.3332 18.5305 16.3332 18.0557 16.0403 17.7628C15.7474 17.4699 15.2726 17.4699 14.9797 17.7628L13.2097 19.5328C12.9174 19.825 12.9167 20.2987 13.2081 20.5919L14.9081 22.3019C15.2001 22.5956 15.675 22.597 15.9688 22.305C16.2625 22.0129 16.2639 21.5381 15.9719 21.2443L15.5233 20.7931L18.5501 20.7931L18.5542 20.7931C19.2336 20.7893 19.8841 20.5178 20.3645 20.0374C20.8448 19.557 21.1164 18.9065 21.1201 18.2271V17.7631Z" fill="#081B3A"/>
</svg>
