<svg width="288" height="216" viewBox="0 0 288 216" fill="none" xmlns="http://www.w3.org/2000/svg">
<g clip-path="url(#clip0_1547_10384)">
<path d="M184.038 114.304H111.738V133.331H184.038V114.304Z" fill="#0058D8"/>
<path d="M116.034 61.4664C115.88 60.4977 116.541 59.588 117.51 59.4346L144.07 55.2279C145.038 55.0745 145.948 55.7354 146.101 56.7041L149.117 75.747C149.271 76.7157 148.61 77.6253 147.641 77.7787L121.082 81.9854C120.113 82.1388 119.203 81.4779 119.05 80.5092L116.034 61.4664Z" fill="url(#paint0_linear_1547_10384)"/>
<path fill-rule="evenodd" clip-rule="evenodd" d="M138.597 58.0313C138.459 58.0532 138.365 58.1831 138.386 58.3215L138.744 60.5766L143.769 59.7806C143.908 59.7587 144.002 59.6287 143.98 59.4904L143.663 57.4858C143.641 57.3475 143.511 57.253 143.373 57.275L138.597 58.0313ZM125.409 60.1202C125.27 60.1421 125.176 60.2721 125.198 60.4104L125.555 62.6655L130.581 61.8695C130.719 61.8476 130.814 61.7177 130.792 61.5793L130.474 59.5748C130.452 59.4364 130.322 59.342 130.184 59.3639L125.409 60.1202ZM118.601 61.4554C118.579 61.3171 118.673 61.1871 118.811 61.1652L123.587 60.4089C123.725 60.387 123.855 60.4814 123.877 60.6198L124.194 62.6243C124.216 62.7627 124.122 62.8926 123.983 62.9145L118.958 63.7105L118.601 61.4554ZM121.177 77.7219C121.155 77.5835 121.249 77.4535 121.387 77.4316L126.163 76.6753C126.301 76.6534 126.431 76.7478 126.453 76.8862L126.77 78.8907C126.792 79.0291 126.698 79.159 126.559 79.1809L121.534 79.9769L121.177 77.7219ZM127.774 76.677C127.753 76.5386 127.847 76.4087 127.985 76.3868L132.761 75.6305C132.899 75.6085 133.029 75.7029 133.051 75.8413L133.368 77.8458C133.39 77.9842 133.296 78.1142 133.157 78.1361L128.132 78.9321L127.774 76.677ZM132.002 59.076C131.863 59.0979 131.769 59.2278 131.791 59.3662L132.148 61.6213L137.174 60.8253C137.312 60.8034 137.407 60.6734 137.385 60.535L137.067 58.5305C137.045 58.3922 136.915 58.2977 136.777 58.3197L132.002 59.076ZM134.368 75.6328C134.346 75.4944 134.44 75.3644 134.578 75.3425L139.354 74.5862C139.492 74.5643 139.622 74.6587 139.644 74.7971L139.961 76.8016C139.983 76.94 139.889 77.0699 139.75 77.0919L134.725 77.8879L134.368 75.6328ZM140.963 74.5881C140.941 74.4497 141.036 74.3198 141.174 74.2978L145.949 73.5415C146.087 73.5196 146.217 73.614 146.239 73.7524L146.557 75.7569C146.579 75.8953 146.484 76.0252 146.346 76.0472L141.32 76.8432L140.963 74.5881ZM137.39 68.3785C137.762 68.0732 137.673 67.5114 137.225 67.336L130.435 64.6765C129.96 64.4907 129.444 64.8738 129.521 65.3556L130.675 72.6426C130.751 73.1244 131.36 73.3294 131.754 73.006L137.39 68.3785Z" fill="url(#paint1_linear_1547_10384)"/>
<path d="M81.175 106.311C79.977 103.02 81.6741 99.3805 84.9656 98.1825L113.572 87.7706C116.864 86.5726 120.503 88.2697 121.701 91.5611L132.113 120.168C133.311 123.459 131.614 127.099 128.322 128.297L99.7158 138.709C96.4244 139.907 92.785 138.209 91.587 134.918L81.175 106.311Z" fill="url(#paint2_linear_1547_10384)"/>
<path fill-rule="evenodd" clip-rule="evenodd" d="M114.127 89.2948L85.5203 99.7067C83.0707 100.598 81.8076 103.307 82.6992 105.757L93.1112 134.363C94.0028 136.813 96.7114 138.076 99.1611 137.184L127.768 126.772C130.217 125.881 131.48 123.172 130.589 120.722L120.177 92.1159C119.285 89.6662 116.577 88.4032 114.127 89.2948ZM84.9656 98.1825C81.6741 99.3805 79.977 103.02 81.175 106.311L91.587 134.918C92.785 138.209 96.4244 139.907 99.7158 138.709L128.322 128.297C131.614 127.099 133.311 123.459 132.113 120.168L121.701 91.5611C120.503 88.2697 116.864 86.5726 113.572 87.7706L84.9656 98.1825Z" fill="url(#paint3_linear_1547_10384)"/>
<path fill-rule="evenodd" clip-rule="evenodd" d="M95.1829 109.073C96.4794 108.601 97.1479 107.167 96.676 105.871C96.2041 104.574 94.7705 103.906 93.474 104.378C92.1774 104.85 91.5089 106.283 91.9808 107.58C92.4527 108.876 93.8863 109.545 95.1829 109.073ZM91.1151 123.155L93.3552 117.058C94.1483 114.899 96.604 113.864 98.703 114.804L103.021 116.737C103.617 117.004 104.312 116.685 104.499 116.059L107.19 107.022C108.22 103.564 112.332 102.128 115.291 104.193L124.907 110.904C125.338 111.205 125.251 111.866 124.757 112.046L91.946 123.988C91.4273 124.177 90.9247 123.673 91.1151 123.155Z" fill="url(#paint4_linear_1547_10384)"/>
<path d="M159.282 95.1915C159.644 93.8381 161.035 93.035 162.389 93.3976L195.469 102.262L203.542 116.243L191.395 161.576C191.032 162.93 189.641 163.733 188.288 163.37L146.63 152.208C145.277 151.845 144.474 150.454 144.837 149.101L159.282 95.1915Z" fill="url(#paint5_linear_1547_10384)"/>
<path d="M195.172 102.182L194.244 101.933L195.318 102.53C196.031 102.925 196.383 103.755 196.172 104.542L194.725 109.941C194.362 111.295 195.165 112.686 196.519 113.048L201.918 114.495C202.705 114.706 203.248 115.425 203.234 116.24L203.213 117.468L203.462 116.541C203.723 115.566 203.587 114.527 203.082 113.653L197.483 103.955C196.978 103.081 196.147 102.443 195.172 102.182Z" fill="#9DCAFC"/>
<path fill-rule="evenodd" clip-rule="evenodd" d="M181.411 112.94L162.769 107.945C161.918 107.716 161.048 108.202 160.827 109.028C160.605 109.854 161.116 110.709 161.967 110.937L180.609 115.932C181.46 116.16 182.33 115.675 182.551 114.849C182.772 114.023 182.262 113.168 181.411 112.94ZM194.444 124.428L160.77 115.405C159.919 115.177 159.049 115.662 158.828 116.489C158.606 117.315 159.117 118.17 159.968 118.398L193.642 127.421C194.493 127.649 195.363 127.164 195.584 126.338C195.806 125.511 195.295 124.656 194.444 124.428ZM158.858 122.539L192.532 131.562C193.383 131.79 193.894 132.645 193.673 133.472C193.451 134.298 192.582 134.783 191.731 134.555L158.057 125.532C157.205 125.304 156.695 124.449 156.916 123.623C157.138 122.796 158.007 122.311 158.858 122.539ZM190.621 138.696L156.947 129.673C156.095 129.445 155.226 129.93 155.005 130.757C154.783 131.583 155.294 132.438 156.145 132.666L189.819 141.689C190.67 141.917 191.54 141.432 191.761 140.606C191.982 139.779 191.472 138.924 190.621 138.696ZM155.035 136.807L188.709 145.83C189.56 146.058 190.071 146.913 189.849 147.74C189.628 148.566 188.759 149.051 187.907 148.823L154.233 139.8C153.382 139.572 152.872 138.717 153.093 137.891C153.314 137.064 154.184 136.579 155.035 136.807Z" fill="url(#paint6_linear_1547_10384)"/>
<path d="M179.566 130.479C181.907 130.479 183.804 132.376 183.804 134.716V181.532H104.324C101.984 181.532 100.087 179.635 100.087 177.295V124.884C100.087 122.544 101.984 120.647 104.324 120.647H135.659C136.567 120.647 137.419 121.083 137.95 121.818L143.356 129.308C143.887 130.044 144.739 130.479 145.646 130.479H179.566Z" fill="url(#paint7_linear_1547_10384)"/>
</g>
<g clip-path="url(#clip1_1547_10384)">
<path opacity="0.3" fill-rule="evenodd" clip-rule="evenodd" d="M19.2646 223.551C7.01239 202.37 0 177.78 0 151.551C0 72.0219 64.471 7.5509 144 7.5509C223.529 7.5509 288 72.0219 288 151.551C288 177.78 280.988 202.37 268.735 223.551H19.2646Z" fill="url(#paint8_linear_1547_10384)"/>
<path opacity="0.3" fill-rule="evenodd" clip-rule="evenodd" d="M227.312 223.551H60.6882C45.1027 204.795 35.7307 180.691 35.7307 154.399C35.7307 94.6033 84.2045 46.1294 144 46.1294C203.796 46.1294 252.27 94.6033 252.27 154.399C252.27 180.691 242.898 204.795 227.312 223.551Z" fill="url(#paint9_linear_1547_10384)"/>
</g>
<g clip-path="url(#clip2_1547_10384)">
<path d="M151.703 203.873C151.976 203.83 152.233 204.016 152.277 204.289C152.32 204.562 152.134 204.819 151.861 204.863C150.499 205.079 149.15 205.228 147.827 205.294C147.551 205.308 147.316 205.095 147.302 204.819C147.288 204.542 147.5 204.307 147.776 204.293C149.059 204.228 150.372 204.085 151.703 203.873ZM140.012 203.492C141.228 203.857 142.511 204.095 143.845 204.222C144.12 204.248 144.322 204.492 144.296 204.768C144.27 205.043 144.025 205.245 143.75 205.219C142.358 205.087 141.011 204.838 139.724 204.453C139.459 204.373 139.308 204.093 139.388 203.828C139.467 203.563 139.747 203.413 140.012 203.492ZM101.896 203.704C103.187 203.799 104.481 203.848 105.77 203.852C106.047 203.853 106.27 204.077 106.269 204.354C106.268 204.63 106.044 204.854 105.767 204.854C104.455 204.85 103.138 204.8 101.823 204.703C101.547 204.683 101.34 204.442 101.36 204.166C101.381 203.89 101.621 203.684 101.896 203.704ZM113.508 203.353C113.782 203.318 114.034 203.511 114.07 203.785C114.106 204.06 113.913 204.312 113.638 204.348C112.343 204.518 111.033 204.646 109.713 204.732C109.436 204.749 109.198 204.54 109.18 204.264C109.162 203.988 109.372 203.749 109.648 203.731C110.946 203.647 112.234 203.521 113.508 203.353ZM94.2427 202.552C95.4998 202.844 96.7695 203.084 98.046 203.275C98.3195 203.316 98.5078 203.571 98.4669 203.845C98.4259 204.119 98.171 204.308 97.8972 204.267C96.5952 204.072 95.2996 203.826 94.0156 203.528C93.7461 203.465 93.5782 203.196 93.6407 202.927C93.7034 202.657 93.9731 202.489 94.2427 202.552ZM159.415 202.016C159.679 201.933 159.959 202.08 160.042 202.344C160.124 202.608 159.978 202.889 159.714 202.972C158.421 203.376 157.121 203.742 155.825 204.058C155.557 204.124 155.285 203.959 155.22 203.69C155.154 203.421 155.319 203.15 155.588 203.084C156.861 202.774 158.139 202.414 159.415 202.016ZM121.115 201.841C121.382 201.769 121.657 201.928 121.729 202.195C121.801 202.462 121.642 202.737 121.375 202.809C120.12 203.147 118.836 203.448 117.531 203.707C117.259 203.76 116.995 203.584 116.941 203.312C116.888 203.041 117.065 202.777 117.336 202.723C118.62 202.468 119.881 202.173 121.115 201.841ZM132.663 199.413C132.864 199.223 133.181 199.233 133.37 199.434C133.85 199.942 134.355 200.412 134.882 200.836C135.388 201.244 135.918 201.613 136.467 201.943C136.704 202.086 136.782 202.394 136.639 202.631C136.497 202.868 136.189 202.945 135.951 202.802C135.363 202.449 134.796 202.055 134.253 201.617C133.689 201.162 133.151 200.661 132.642 200.122C132.452 199.92 132.462 199.603 132.663 199.413ZM86.2376 200.423C86.3468 200.169 86.6411 200.052 86.8953 200.161C88.0807 200.669 89.2892 201.121 90.5147 201.518C90.7776 201.604 90.922 201.887 90.8367 202.15C90.7513 202.413 90.4685 202.557 90.2054 202.472C88.9518 202.065 87.7144 201.603 86.4999 201.082C86.2457 200.973 86.1285 200.677 86.2376 200.423ZM166.883 199.26C167.138 199.153 167.433 199.273 167.54 199.528C167.647 199.783 167.527 200.077 167.272 200.184C166.044 200.7 164.793 201.197 163.527 201.666C163.268 201.762 162.979 201.63 162.883 201.371C162.787 201.111 162.919 200.823 163.179 200.727C164.43 200.263 165.668 199.771 166.883 199.26ZM128.429 199.301C128.683 199.19 128.978 199.307 129.088 199.561C129.199 199.815 129.082 200.11 128.828 200.221C127.645 200.735 126.415 201.213 125.146 201.652C124.885 201.743 124.599 201.604 124.509 201.342C124.419 201.081 124.558 200.796 124.819 200.705C126.065 200.274 127.27 199.804 128.429 199.301ZM79.7829 196.583C79.955 196.366 80.27 196.33 80.4866 196.502C81.0308 196.935 81.5201 197.294 81.7765 197.508C82.3188 197.842 82.8677 198.163 83.4237 198.469C83.6662 198.602 83.7547 198.906 83.6215 199.149C83.4881 199.391 83.1837 199.48 82.9412 199.347C82.3634 199.029 81.7921 198.696 81.2285 198.348L81.1952 198.328L81.1658 198.302C80.9318 198.102 80.5051 197.798 79.8631 197.287C79.6465 197.115 79.6107 196.799 79.7829 196.583ZM174.121 195.909C174.368 195.785 174.669 195.884 174.793 196.131C174.918 196.379 174.818 196.68 174.571 196.805C173.41 197.389 172.199 197.977 170.952 198.556C170.701 198.672 170.403 198.563 170.286 198.312C170.17 198.061 170.279 197.763 170.53 197.646C171.767 197.073 172.968 196.489 174.121 195.909ZM135.204 195.596C135.432 195.439 135.743 195.496 135.9 195.724C136.057 195.952 136 196.264 135.772 196.421C134.719 197.146 133.588 197.838 132.389 198.489C132.146 198.621 131.841 198.531 131.709 198.288C131.577 198.044 131.667 197.74 131.91 197.608C133.081 196.973 134.182 196.3 135.204 195.596ZM128.462 192.049C128.722 191.954 129.01 192.088 129.105 192.348C129.585 193.659 130.183 194.929 130.887 196.113C131.029 196.351 130.951 196.657 130.713 196.799C130.475 196.94 130.168 196.863 130.026 196.625C129.289 195.386 128.664 194.058 128.164 192.691C128.069 192.431 128.202 192.144 128.462 192.049ZM75.2504 191.697C75.4755 191.536 75.7883 191.588 75.9492 191.813C76.6304 192.767 77.3513 193.599 78.0485 194.314C78.2416 194.512 78.2377 194.829 78.0397 195.023C77.8417 195.216 77.5244 195.212 77.3311 195.014C76.6038 194.268 75.8492 193.397 75.1339 192.396C74.9732 192.17 75.0252 191.858 75.2504 191.697ZM181.156 192.117C181.396 191.979 181.703 192.063 181.84 192.303C181.978 192.543 181.895 192.849 181.655 192.987C180.585 193.6 179.406 194.26 178.138 194.944C177.894 195.075 177.591 194.984 177.459 194.741C177.328 194.497 177.419 194.194 177.662 194.062C178.922 193.383 180.093 192.726 181.156 192.117ZM140.797 190.415C140.963 190.193 141.277 190.149 141.499 190.315C141.72 190.481 141.765 190.794 141.599 191.016C140.835 192.034 139.927 193.018 138.894 193.959C138.69 194.145 138.373 194.13 138.187 193.925C138 193.721 138.015 193.404 138.219 193.218C139.212 192.313 140.076 191.376 140.797 190.415ZM188.168 187.887C188.402 187.74 188.712 187.811 188.859 188.045C189.006 188.279 188.935 188.588 188.701 188.735C188.091 189.119 187.462 189.509 186.816 189.907C186.364 190.185 185.792 190.537 185.115 190.946C184.878 191.089 184.57 191.014 184.427 190.777C184.284 190.54 184.36 190.232 184.596 190.089C185.27 189.681 185.839 189.331 186.291 189.053C186.935 188.658 187.56 188.268 188.168 187.887ZM72.5412 185.622C72.8082 185.549 73.0833 185.707 73.1559 185.974C73.4533 187.071 73.8423 188.084 74.2902 189.016C74.4101 189.265 74.3048 189.566 74.0553 189.685C73.806 189.805 73.5068 189.7 73.3868 189.451C72.914 188.467 72.5033 187.396 72.1889 186.236C72.1166 185.969 72.2742 185.694 72.5412 185.622ZM127.317 183.654C127.593 183.669 127.805 183.906 127.79 184.182C127.715 185.514 127.801 186.912 128.036 188.321C128.082 188.594 127.897 188.852 127.624 188.898C127.351 188.943 127.093 188.758 127.048 188.486C126.802 187.011 126.709 185.539 126.788 184.125C126.804 183.849 127.041 183.638 127.317 183.654ZM143.84 183.248C144.116 183.255 144.335 183.484 144.329 183.76C144.315 184.371 144.255 184.968 144.148 185.535C144.023 186.196 143.834 186.85 143.586 187.495C143.487 187.753 143.198 187.882 142.94 187.783C142.681 187.684 142.552 187.394 142.651 187.136C142.878 186.544 143.05 185.947 143.164 185.348C143.26 184.84 143.314 184.299 143.327 183.738C143.333 183.461 143.563 183.242 143.84 183.248ZM195.495 183.017C195.72 182.857 196.033 182.909 196.193 183.135C196.354 183.36 196.3 183.673 196.075 183.834C194.938 184.642 193.724 185.475 192.42 186.338C192.19 186.491 191.879 186.428 191.726 186.197C191.574 185.967 191.637 185.655 191.867 185.502C193.162 184.644 194.367 183.819 195.495 183.017ZM71.5233 181.145C71.5233 180.49 71.5689 179.835 71.6574 179.184C71.6947 178.91 71.9471 178.717 72.2212 178.754C72.4954 178.791 72.6881 179.045 72.6508 179.319C72.5682 179.927 72.5256 180.537 72.5256 181.145L72.5295 181.561C72.5382 181.975 72.5605 182.379 72.5941 182.775C72.6175 183.05 72.4128 183.293 72.137 183.317C71.8614 183.34 71.6193 183.135 71.5958 182.86C71.5604 182.443 71.5374 182.017 71.5282 181.583L71.5233 181.145ZM202.408 177.615C202.617 177.433 202.933 177.455 203.115 177.664C203.297 177.872 203.275 178.189 203.066 178.37C202.004 179.295 200.87 180.23 199.637 181.19C199.418 181.36 199.103 181.32 198.933 181.102C198.763 180.884 198.803 180.569 199.021 180.399C200.24 179.45 201.361 178.527 202.408 177.615ZM142.064 176.739C142.308 176.609 142.611 176.703 142.741 176.947C143.279 177.964 143.688 179.099 143.956 180.258C144.019 180.528 143.85 180.797 143.581 180.859C143.311 180.921 143.042 180.753 142.98 180.483C142.729 179.399 142.349 178.348 141.855 177.416C141.726 177.172 141.819 176.868 142.064 176.739ZM130.638 175.612C130.845 175.429 131.161 175.449 131.344 175.656C131.528 175.864 131.508 176.18 131.301 176.363C130.61 176.975 130.005 177.661 129.534 178.376H129.533C129.168 178.929 128.861 179.532 128.611 180.175C128.511 180.433 128.221 180.561 127.963 180.461C127.705 180.361 127.577 180.071 127.677 179.813C127.951 179.109 128.29 178.442 128.697 177.824C129.222 177.029 129.886 176.277 130.638 175.612ZM74.3959 171.932C74.5418 171.697 74.8508 171.625 75.0859 171.771C75.3211 171.917 75.3943 172.226 75.2484 172.461C74.5762 173.544 74.0166 174.649 73.5836 175.766C73.4835 176.024 73.1927 176.153 72.9347 176.053C72.6768 175.953 72.5489 175.662 72.6489 175.404C73.1064 174.224 73.6943 173.063 74.3959 171.932ZM208.654 171.469C208.839 171.264 209.157 171.248 209.362 171.434C209.567 171.62 209.582 171.938 209.396 172.143C208.407 173.234 207.396 174.296 206.326 175.351C206.129 175.545 205.812 175.543 205.618 175.346C205.423 175.149 205.425 174.832 205.622 174.637C206.678 173.597 207.675 172.549 208.654 171.469ZM135.861 172.988C136.89 172.823 137.928 172.874 138.891 173.223C139.475 173.435 140.015 173.749 140.506 174.141C140.723 174.314 140.758 174.629 140.586 174.845C140.413 175.061 140.098 175.097 139.882 174.925C139.517 174.634 139.131 174.401 138.725 174.233L138.55 174.166C137.776 173.885 136.915 173.834 136.02 173.978C135.747 174.022 135.489 173.836 135.445 173.563C135.402 173.29 135.588 173.032 135.861 172.988ZM79.3512 166.024C79.5542 165.835 79.8717 165.848 80.0598 166.051C80.2477 166.254 80.236 166.571 80.0334 166.759C79.0976 167.626 78.2312 168.528 77.4456 169.456C77.2669 169.667 76.9503 169.694 76.739 169.515C76.5282 169.336 76.5019 169.02 76.6803 168.809C77.4936 167.848 78.3877 166.917 79.3512 166.024ZM212.951 166.462C213.127 166.249 213.444 166.219 213.657 166.395C213.87 166.571 213.9 166.887 213.724 167.1C213.245 167.68 212.773 168.246 212.306 168.8C212.128 169.012 211.812 169.039 211.601 168.861C211.389 168.683 211.362 168.366 211.54 168.154C212.004 167.603 212.474 167.04 212.951 166.462ZM85.4928 161.402C85.7288 161.258 86.0373 161.331 86.1818 161.567C86.3263 161.803 86.2524 162.112 86.0164 162.257C84.936 162.918 83.8983 163.622 82.9119 164.362C82.6905 164.528 82.3762 164.482 82.2101 164.261C82.0444 164.04 82.089 163.726 82.31 163.56C83.3221 162.801 84.3864 162.08 85.4928 161.402ZM92.3674 157.984C92.625 157.883 92.9162 158.011 93.0173 158.268C93.1184 158.526 92.9919 158.817 92.7344 158.918C91.5642 159.377 90.4171 159.886 89.302 160.44C89.0542 160.563 88.7527 160.462 88.6296 160.214C88.5069 159.966 88.608 159.666 88.8557 159.542C89.9967 158.976 91.1699 158.454 92.3674 157.984ZM97.8601 156.24C98.1287 156.175 98.4001 156.339 98.4659 156.607C98.5316 156.876 98.3666 157.147 98.0979 157.213C97.4906 157.362 96.8858 157.524 96.2853 157.701C96.0198 157.778 95.7417 157.626 95.6638 157.361C95.5861 157.095 95.738 156.817 96.0034 156.739C96.6184 156.559 97.2378 156.392 97.8601 156.24Z" fill="url(#paint10_linear_1547_10384)"/>
</g>
<path d="M215.533 152.032L218.63 161.541C218.85 162.218 219.68 162.459 220.226 162.005L229.475 154.341C229.475 154.341 219.646 150.491 219.646 150.701C219.646 150.911 215.533 152.032 215.533 152.032Z" fill="#47A4F4"/>
<path d="M239.939 133.756C233.898 136.155 214.402 144.175 207.022 147.213C206.046 147.615 206.105 149.017 207.109 149.338L215.535 152.032L218.623 161.511C218.748 161.893 219.059 162.139 219.409 162.203C219.692 162.257 220.111 154.526 220.111 154.526C220.111 154.526 228.969 161.121 233.17 164.233C234.204 164.999 235.683 164.422 235.928 163.156C237.179 156.681 240.31 140.492 241.38 134.955C241.54 134.122 240.723 133.44 239.939 133.753V133.756Z" fill="#73B9F6"/>
<path d="M219.409 162.205C219.692 162.259 220.111 154.528 220.111 154.528L234.664 140.807C234.763 140.715 234.643 140.558 234.528 140.628L215.533 152.032L218.62 161.511C218.745 161.893 219.057 162.139 219.406 162.203L219.409 162.205Z" fill="url(#paint11_linear_1547_10384)"/>
<defs>
<linearGradient id="paint0_linear_1547_10384" x1="130.79" y1="57.3313" x2="134.361" y2="79.8821" gradientUnits="userSpaceOnUse">
<stop stop-color="#A5CEFF" stop-opacity="0"/>
<stop offset="1" stop-color="#A5CEFF"/>
</linearGradient>
<linearGradient id="paint1_linear_1547_10384" x1="133.751" y1="51.2888" x2="137.938" y2="83.2816" gradientUnits="userSpaceOnUse">
<stop stop-color="white" stop-opacity="0"/>
<stop offset="1" stop-color="white"/>
</linearGradient>
<linearGradient id="paint2_linear_1547_10384" x1="74.2881" y1="98.4541" x2="136.905" y2="129.681" gradientUnits="userSpaceOnUse">
<stop stop-color="#AFD5FF"/>
<stop offset="1" stop-color="#E2F3FF"/>
</linearGradient>
<linearGradient id="paint3_linear_1547_10384" x1="71.545" y1="94.5861" x2="152.376" y2="134.522" gradientUnits="userSpaceOnUse">
<stop stop-color="white"/>
<stop offset="1" stop-color="white" stop-opacity="0"/>
</linearGradient>
<linearGradient id="paint4_linear_1547_10384" x1="103.699" y1="106.478" x2="108.352" y2="118.017" gradientUnits="userSpaceOnUse">
<stop stop-color="white"/>
<stop offset="1" stop-color="white" stop-opacity="0"/>
</linearGradient>
<linearGradient id="paint5_linear_1547_10384" x1="195.64" y1="102.307" x2="157.112" y2="178.455" gradientUnits="userSpaceOnUse">
<stop stop-color="#D8F1FF"/>
<stop offset="0.689583" stop-color="#89BCFF"/>
</linearGradient>
<linearGradient id="paint6_linear_1547_10384" x1="179.606" y1="112.456" x2="171.07" y2="144.312" gradientUnits="userSpaceOnUse">
<stop stop-color="white" stop-opacity="0.6"/>
<stop offset="1" stop-color="white" stop-opacity="0.2"/>
</linearGradient>
<linearGradient id="paint7_linear_1547_10384" x1="81.2259" y1="107.277" x2="195.986" y2="264.054" gradientUnits="userSpaceOnUse">
<stop stop-color="#54A7FF"/>
<stop offset="1" stop-color="#1340D4"/>
</linearGradient>
<linearGradient id="paint8_linear_1547_10384" x1="129.173" y1="156.261" x2="130.008" y2="-6.64648" gradientUnits="userSpaceOnUse">
<stop stop-color="white" stop-opacity="0"/>
<stop offset="1" stop-color="#A0DDFF"/>
</linearGradient>
<linearGradient id="paint9_linear_1547_10384" x1="144" y1="46.1294" x2="144" y2="207.025" gradientUnits="userSpaceOnUse">
<stop stop-color="#A0DDFF"/>
<stop offset="1" stop-color="white" stop-opacity="0"/>
</linearGradient>
<linearGradient id="paint10_linear_1547_10384" x1="180.653" y1="156.226" x2="176.646" y2="226.269" gradientUnits="userSpaceOnUse">
<stop stop-color="#D8F1FF"/>
<stop offset="0.689583" stop-color="#89BCFF"/>
</linearGradient>
<linearGradient id="paint11_linear_1547_10384" x1="225.117" y1="140.61" x2="225.117" y2="162.206" gradientUnits="userSpaceOnUse">
<stop stop-color="white" stop-opacity="0.98"/>
<stop offset="1" stop-color="white" stop-opacity="0.38"/>
</linearGradient>
<clipPath id="clip0_1547_10384">
<rect width="162.36" height="162.36" fill="white" transform="translate(61 39.4667)"/>
</clipPath>
<clipPath id="clip1_1547_10384">
<rect width="288" height="216" fill="white"/>
</clipPath>
<clipPath id="clip2_1547_10384">
<rect width="153.34" height="52.1156" fill="white" transform="translate(71.0222 155.724)"/>
</clipPath>
</defs>
</svg>
