<svg width="158" height="40" viewBox="0 0 158 40" fill="none" xmlns="http://www.w3.org/2000/svg">
<path fill-rule="evenodd" clip-rule="evenodd" d="M35.8004 7.90484V1.9021H63.8133V2.75622C63.8133 4.34955 63.6006 5.64994 62.5659 7.17582L62.4412 7.31818C62.2149 7.57524 61.6845 8.17681 61.4326 8.50386L43.4288 31.1156H63.8133V34.3166C63.8133 35.6429 62.738 36.718 61.4118 36.718H35V35.2084C35 33.3597 35.4592 32.5348 36.0396 31.6756L55.2316 7.90484H35.8004ZM97.4245 34.7184V1.9021H103.427V36.718H99.4243C98.3213 36.718 97.4245 35.8211 97.4245 34.7184ZM87.0142 12.2494V10.3741H92.6222V36.718H89.4138C88.093 36.718 87.022 35.6507 87.0147 34.3317C84.7524 35.9882 81.9636 36.9684 78.9447 36.9684C71.3908 36.9684 65.2671 30.8446 65.2671 23.2907C65.2671 15.7368 71.3908 9.61328 78.9447 9.61328C81.9634 9.61328 84.7518 10.5933 87.0142 12.2494ZM78.9447 31.3364C83.3881 31.3364 86.9902 27.7343 86.9902 23.2907C86.9902 18.8474 83.3881 15.2452 78.9447 15.2452C74.5012 15.2452 70.8991 18.8474 70.8991 23.2907C70.8991 27.7343 74.5012 31.3364 78.9447 31.3364ZM121.175 9.44876C128.781 9.44876 134.946 15.6141 134.946 23.2196C134.946 30.825 128.781 36.9903 121.175 36.9903C113.57 36.9903 107.404 30.825 107.404 23.2196C107.404 15.6141 113.57 9.44876 121.175 9.44876ZM121.175 31.3199C125.649 31.3199 129.276 27.6933 129.276 23.2196C129.276 18.7458 125.649 15.119 121.175 15.119C116.702 15.119 113.075 18.7458 113.075 23.2196C113.075 27.6933 116.702 31.3199 121.175 31.3199Z" fill="#0068FF"/>
<path d="M26.5083 22.2462H8.50995C7.21328 22.1598 6.7752 20.9726 7.26508 20.0851L16.2672 4.66854C16.9011 3.71758 18.1575 3.71758 18.7568 4.66854L27.7531 20.085C28.2949 21.0705 27.6034 22.2519 26.5083 22.2462Z" fill="white"/>
<path d="M9.39172 20.3041L17.512 6.38599L25.6381 20.3041H9.39172Z" fill="#FFC10D"/>
<path d="M19.1604 24.1885H15.8696V35.0463H19.1604V24.1885Z" fill="#0068FF"/>
<path d="M17.512 15.7337C16.9761 15.7337 16.5381 15.3015 16.5381 14.7598V10.3509C16.5381 9.81494 16.9703 9.37695 17.512 9.37695C18.0538 9.37695 18.486 9.80915 18.486 10.3509V14.7598C18.486 15.3015 18.0538 15.7337 17.512 15.7337Z" fill="#194F82"/>
<path d="M17.512 19.382C16.9761 19.382 16.5381 18.9498 16.5381 18.408V17.6012C16.5381 17.0652 16.9703 16.6272 17.512 16.6272C18.0538 16.6272 18.486 17.0594 18.486 17.6012V18.408C18.486 18.944 18.0538 19.382 17.512 19.382Z" fill="#194F82"/>
<path d="M29.4303 19.1053L20.434 3.6888C19.2641 1.54495 16.0309 1.3317 14.5901 3.6888L5.588 19.1053C4.53337 20.6614 5.16731 23.9751 8.50995 24.1942H13.9158V35.052H11.1034C10.5674 35.052 10.1294 35.4842 10.1294 36.0259C10.1294 36.5677 10.5616 36.9999 11.1034 36.9999H23.9091C24.4451 36.9999 24.8831 36.5677 24.8831 36.0259C24.8831 35.49 24.4509 35.052 23.9091 35.052H21.0967V24.1942H26.5025C29.5916 24.1999 30.5425 20.9437 29.4303 19.1053ZM19.1603 35.052H15.8696V24.1942H19.1603V35.052ZM26.5083 22.2462H8.50995C7.21328 22.1541 6.7752 20.9726 7.26508 20.0851L16.2672 4.66855C16.9011 3.7176 18.1575 3.7176 18.7568 4.66855L27.7531 20.085C28.2949 21.0705 27.6091 22.252 26.5083 22.2462Z" fill="#194F82"/>
<path d="M140.357 29.3367H156.643V36.704H140.357V29.3367Z" fill="#FFC10D"/>
<path d="M156.643 29.3367V27.3979C156.643 26.9699 156.295 26.6224 155.867 26.6224H141.133C140.705 26.6224 140.357 26.9699 140.357 27.3979V29.3367H156.643ZM146.561 26.6224V25.0714H150.051V26.6224H150.827V25.0714C150.827 24.6433 150.479 24.2959 150.051 24.2959H146.561C146.133 24.2959 145.786 24.6433 145.786 25.0714V26.6224H146.561Z" fill="#194F82"/>
<path d="M142.684 28.5613H145.01V32.0511H142.684V28.5613ZM151.99 28.5613H154.316V32.0511H151.99V28.5613Z" fill="#78909C"/>
<path d="M142.684 30.5H145.01V31.2755H142.684V30.5ZM151.99 30.5H154.316V31.2755H151.99V30.5Z" fill="#194F82"/>
</svg>
